<svg xmlns="http://www.w3.org/2000/svg" xmlns:xlink="http://www.w3.org/1999/xlink" width="20" height="20" viewBox="0 0 20 20">
  <defs>
    <rect id="rect-1" width="20" height="20" x="0" y="0"/>
    <mask id="mask-2" maskContentUnits="userSpaceOnUse" maskUnits="userSpaceOnUse">
      <rect width="20" height="20" x="0" y="0" fill="black"/>
      <use fill="white" xlink:href="#rect-1"/>
    </mask>
  </defs>
  <g opacity=".48">
    <use fill="none" xlink:href="#rect-1"/>
    <g mask="url(#mask-2)">
      <path fill="rgb(41,45,50)" fill-opacity=".48" fill-rule="evenodd" d="M7.9583435 18.57666016c.3666687.19999694.7583313.30000305 1.1583252.30000305.42501831 0 .8500061-.1166687 1.2250061-.3500061l1.1499939-.74165345c.5833435-.3500061 1.05001831-1.2083435 1.05001831-1.9500122V12.2516632c0-.5166626.2749939-1.15834046.625-1.44999695l3.6083374-3.19166565c.49163819-.4916687 1.0166626-1.4833374 1.0166626-2.3583374V3.41833496c0-1.26667786-1.02502441-2.29167175-2.29168701-2.29167175h-11c-1.2833252 0-2.2916565 1.04167175-2.2916565 2.375v1.91667175c0 .6749878.3999939 1.57499695.9249878 2.09999085L6.25 10.81832886c.2583313.31666565.53335571.94166565.53335571 1.3583374v4.4166565c-.00268554.82684326.44854737 1.5884552 1.1749878 1.9833374zm-4.5-15.07499695c0-.6333313.45834351-1.125 1.0416565-1.125h11.0083313c.5750122 0 1.04168701.46665954 1.04168701 1.04167175v1.82499695c0 .4916687-.3416748 1.16667175-.625 1.44999695l-3.5666809 3.15834045c-.625.5249939-1.0583191 1.5083313-1.0583191 2.3999939v3.58332825c0 .30000305-.2333374.75-.4666748.89167785l-1.1583252.74165344c-.3250122.20001221-.75.20001221-1.1000061.00834656-.1583252-.0833435-.5333252-.3500061-.5333252-.89167785v-4.4166565c0-.78334045-.41668701-1.65834045-.8416748-2.18333435l-3.1749878-3.3416748c-.3166809-.31666565-.5666809-.9166565-.5666809-1.22499085V3.50166321z"/>
      <path fill="rgb(41,45,50)" fill-opacity=".48" fill-rule="evenodd" d="M5 8.95916667c-.1170791-.00184763-.23177268-.03338836-.33333333-.09166667-.29243391-.18559982-.38153169-.57169017-.2-.86666667L8.575 1.4175c.18179373-.29225068.56608265-.38179373.85833333-.2s.38179373.56608265.2.85833333L5.525 8.65916667c-.11666667.19166666-.31666667.3-.525.3z"/>
    </g>
  </g>
</svg>
