<svg xmlns="http://www.w3.org/2000/svg" width="11.416" height="12.543" viewBox="0 0 11.416 12.543">
  <g>
    <path fill="rgb(41,45,50)" fill-rule="evenodd" d="M10.96083333 3.19666667h-.04666666C7.82833333 2.8875 4.74833333 2.77083333 1.6975 3.08l-1.19.11666667c-.11692442.0121979-.23387274-.0228563-.32480952-.09735872C.0917537 3.02480553.03437684 2.91703909.02333333 2.8 0 2.555.175 2.345.41416667 2.32166667l1.19-.11666667c3.10333333-.315 6.2475-.1925 9.3975.11666667C11.24083333 2.345 11.41583333 2.56083333 11.3925 2.8c-.01827274.22463685-.20628908.39740863-.43166667.39666667z"/>
    <path fill="rgb(41,45,50)" fill-rule="evenodd" d="M3.66916667 2.6075c-.02333334 0-.04666667 0-.07583334-.00583333C3.35790393 2.55923974 3.19971465 2.33621879 3.2375 2.1l.12833333-.76416667C3.45916667.77583333 3.5875 0 4.94666667 0H6.475C7.84 0 7.96833333.805 8.05583333 1.34166667L8.18416667 2.1c.04083333.23916667-.1225.46666667-.35583334.50166667-.23916666.04083333-.46666666-.1225-.50166666-.35583334L7.19833333 1.4875c-.08166666-.5075-.09916666-.60666667-.7175-.60666667H4.9525c-.61833333 0-.63.08166667-.7175.60083334L4.10083333 2.24c-.03432484.21176661-.21713628.36740338-.43166666.3675z"/>
    <path fill="rgb(41,45,50)" fill-rule="evenodd" d="M7.58333333 12.54283333h-3.745c-2.03583333 0-2.1175-1.12583333-2.18166666-2.03583333L1.2775 4.63283333c-.0175-.23916666.16916667-.44916666.40833333-.46666666C1.93083333 4.1545 2.135 4.33533333 2.1525 4.5745l.37916667 5.87416667c.06416666.88666666.0875 1.21916666 1.30666666 1.21916666h3.745c1.225 0 1.24833334-.3325 1.30666667-1.21916666L9.26916667 4.5745c.0175-.23916667.2275-.42.46666666-.40833333.23916667.0175.42583334.22166666.40833334.46666666L9.765 10.507c-.06416667.91-.14583333 2.03583333-2.18166667 2.03583333z"/>
    <path fill="rgb(41,45,50)" fill-rule="evenodd" d="M6.67916667 9.33333333h-1.9425c-.23916667 0-.4375-.19833333-.4375-.4375 0-.23916666.19833333-.4375.4375-.4375h1.9425c.23916666 0 .4375.19833334.4375.4375 0 .23916667-.19833334.4375-.4375.4375z"/>
    <path fill="rgb(41,45,50)" fill-rule="evenodd" d="M7.16916667 7H4.2525c-.23916667 0-.4375-.19833333-.4375-.4375s.19833333-.4375.4375-.4375h2.91666667c.23916666 0 .4375.19833333.4375.4375S7.40833333 7 7.16916667 7z"/>
  </g>
</svg>
