<svg xmlns="http://www.w3.org/2000/svg" xmlns:xlink="http://www.w3.org/1999/xlink" width="20" height="20" viewBox="0 0 20 20">
  <defs>
    <rect id="rect-1" width="20" height="20" x="0" y="0"/>
    <mask id="mask-2" maskContentUnits="userSpaceOnUse" maskUnits="userSpaceOnUse">
      <rect width="20" height="20" x="0" y="0" fill="black"/>
      <use fill="white" xlink:href="#rect-1"/>
    </mask>
  </defs>
  <g>
    <use fill="none" xlink:href="#rect-1"/>
    <g mask="url(#mask-2)">
      <path fill="rgb(195,188,206)" fill-opacity=".48" fill-rule="evenodd" d="M1.04167175 9.58337402C1.04167175 14.29168702 4.875 18.125 9.58334351 18.125 14.29167175 18.125 18.125 14.29168701 18.125 9.58337402c0-4.70837402-3.83332825-8.541687-8.5416565-8.541687-4.7083435 0-8.54167175 3.83331298-8.54167175 8.541687zm1.25 0c0-4.0166626 3.2666626-7.291687 7.29167176-7.291687 4.0249939 0 7.29165649 3.2750244 7.29165649 7.291687S13.6083374 16.875 9.5833435 16.875c-4.02500915 0-7.29167175-3.27496338-7.29167175-7.29162598z"/>
      <path fill="rgb(195,188,206)" fill-opacity=".48" fill-rule="evenodd" d="M18.33333333 18.95916667c-.15833333 0-.31666666-.05833334-.44166666-.18333334L16.225 17.10916667c-.24189064-.24476523-.24189064-.63856811 0-.88333334.24166667-.24166666.64166667-.24166666.88333333 0L18.775 17.8925c.24166667.24166667.24166667.64166667 0 .88333333-.125.125-.28333333.18333334-.44166667.18333334z"/>
    </g>
  </g>
</svg>
