<svg xmlns="http://www.w3.org/2000/svg" width="40" height="43.025" viewBox="0 0 40 43.025">
  <g>
    <rect width="40" height="40" x="0" y="3.025" fill="rgb(255,255,255)" rx="0" ry="0"/>
    <path fill="rgb(213,234,217)" fill-rule="evenodd" d="M12.08465 32.2105851c5.7416 0 10.39605-4.65445 10.39605-10.39605 0-5.7416-4.65445-10.3961-10.39605-10.3961-5.7416 0-10.396075 4.6545-10.396075 10.3961 0 5.7416 4.654475 10.39605 10.396075 10.39605z"/>
    <path fill="none" stroke="rgb(0,0,0)" stroke-dasharray="0 0 0 0" stroke-linecap="butt" stroke-linejoin="miter" stroke-width="2" d="M20.3215 17.5828351c3.5562 0 6.4391-2.8829 6.4391-6.4391 0-3.55622-2.8829-6.439105-6.4391-6.439105s-6.4391 2.882885-6.4391 6.439105c0 3.5562 2.8829 6.4391 6.4391 6.4391h0z"/>
    <path fill="none" stroke="rgb(0,0,0)" stroke-dasharray="0 0 0 0" stroke-linecap="round" stroke-linejoin="round" stroke-width="2" d="M28.18725 36.9435351l-6.37645 3.68705c-.91575.5302-2.0484.5302-2.96415 0l-7.55245-4.357-2.51105-1.4507c-1.1037-.6362-1.6628-1.9038-1.43145-3.1521.44825-2.39055 1.5375-4.5594 3.09905-6.30895 2.4147-2.72315 5.9379-4.43895 9.8804-4.43895 1.4652 0 2.87735.241 4.1931.6796"/>
    <path fill="rgb(43,175,74)" fill-rule="evenodd" d="M38.49175 24.5810351c-.4627 4.7811-2.72315 8.94535-6.00055 11.59615-.6603.535-1.5953.535-2.2604 0-3.2774-2.646-5.53785-6.81505-6.00055-11.601-.08675-.94945.59285-1.79775 1.5375-1.9182 1.68205-.2121 3.2774-.7567 4.73295-1.57125.5398-.2988 1.19045-.2988 1.73025 0 1.45555.81455 3.04605 1.35435 4.7281 1.57125.9447.12045 1.62425.96875 1.5327 1.92305z"/>
    <path fill="none" stroke="rgb(255,255,255)" stroke-dasharray="0 0 0 0" stroke-linecap="round" stroke-linejoin="round" stroke-width="2" d="M28.4668 27.8584351l2.2556 2.26045 4.54015-4.54015"/>
    <path fill="none" stroke="rgb(0,0,0)" stroke-dasharray="0 0 0 0" stroke-linecap="round" stroke-linejoin="round" stroke-width="2" d="M13.80045 27.8487851s-1.85075 1.7592-2.3279 3.7256l5.13295 3.1039"/>
    <path fill="rgb(0,0,0)" fill-rule="evenodd" d="M15.60785 27.1113851c.4232 0 .7663-.3431.7663-.76635 0-.4232-.3431-.7663-.7663-.7663-.42325 0-.76635.3431-.76635.7663 0 .42325.3431.76635.76635.76635z"/>
  </g>
</svg>
