<svg xmlns="http://www.w3.org/2000/svg" xmlns:xlink="http://www.w3.org/1999/xlink" width="24" height="24" viewBox="0 0 24 24">
  <defs>
    <rect id="rect-1" width="24" height="24" x="0" y="0"/>
    <mask id="mask-2" maskContentUnits="userSpaceOnUse" maskUnits="userSpaceOnUse">
      <rect width="24" height="24" x="0" y="0" fill="black"/>
      <use fill="white" xlink:href="#rect-1"/>
    </mask>
  </defs>
  <g>
    <use fill="none" xlink:href="#rect-1"/>
    <g mask="url(#mask-2)">
      <path fill="rgb(255,255,255)" fill-rule="evenodd" d="M1.25 12c0 5.9300003 4.82000732 10.75 10.75 10.75S22.75 17.9300003 22.75 12 17.92999268 1.25 12 1.25 1.25 6.0699997 1.25 12zm1.5 0c0-5.09999847 4.1499939-9.25 9.25-9.25s9.25 4.15000153 9.25 9.25-4.1499939 9.25-9.25 9.25S2.75 17.09999847 2.75 12z"/>
      <path fill="rgb(255,255,255)" fill-rule="evenodd" d="M9.17 15.58c-.19 0-.38-.07-.53-.22-.29026877-.29371827-.29026877-.76628173 0-1.06l5.66-5.66c.29-.29.77-.29 1.06 0 .29.29.29.77 0 1.06L9.7 15.36c-.14.15-.34.22-.53.22z"/>
      <path fill="rgb(255,255,255)" fill-rule="evenodd" d="M14.83 15.58c-.19 0-.38-.07-.53-.22L8.64 9.7c-.29026877-.29371827-.29026877-.76628173 0-1.06.29-.29.77-.29 1.06 0l5.66 5.66c.29.29.29.77 0 1.06-.15.15-.34.22-.53.22z"/>
    </g>
  </g>
</svg>
