<svg xmlns="http://www.w3.org/2000/svg" width="99" height="191.093" viewBox="0 0 99 191.093">
  <g transform="rotate(90.000032 49.5 95.54651163)">
    <g>
      <g opacity=".494">
        <ellipse cx="-42.209" cy="49.884" fill="rgb(229,177,63)" rx="3.837" ry="3.837"/>
      </g>
      <g opacity=".494">
        <ellipse cx="-30.698" cy="49.884" fill="rgb(229,177,63)" rx="3.837" ry="3.837"/>
      </g>
      <g opacity=".494">
        <ellipse cx="-17.651" cy="49.884" fill="rgb(229,177,63)" rx="3.837" ry="3.837"/>
      </g>
      <g opacity=".494">
        <ellipse cx="-6.14" cy="49.884" fill="rgb(229,177,63)" rx="3.837" ry="3.837"/>
      </g>
      <g opacity=".494">
        <ellipse cx="6.907" cy="49.884" fill="rgb(229,177,63)" rx="3.837" ry="3.837"/>
      </g>
      <g opacity=".494">
        <ellipse cx="18.419" cy="49.884" fill="rgb(229,177,63)" rx="3.837" ry="3.837"/>
      </g>
      <g opacity=".494">
        <ellipse cx="31.465" cy="49.884" fill="rgb(229,177,63)" rx="3.837" ry="3.837"/>
      </g>
      <g opacity=".494">
        <ellipse cx="42.977" cy="49.884" fill="rgb(229,177,63)" rx="3.837" ry="3.837"/>
      </g>
    </g>
    <g>
      <g opacity=".494">
        <ellipse cx="-42.209" cy="62.93" fill="rgb(229,177,63)" rx="3.837" ry="3.837"/>
      </g>
      <g opacity=".494">
        <ellipse cx="-30.698" cy="62.93" fill="rgb(229,177,63)" rx="3.837" ry="3.837"/>
      </g>
      <g opacity=".494">
        <ellipse cx="-17.651" cy="62.93" fill="rgb(229,177,63)" rx="3.837" ry="3.837"/>
      </g>
      <g opacity=".494">
        <ellipse cx="-6.14" cy="62.93" fill="rgb(229,177,63)" rx="3.837" ry="3.837"/>
      </g>
      <g opacity=".494">
        <ellipse cx="6.907" cy="62.93" fill="rgb(229,177,63)" rx="3.837" ry="3.837"/>
      </g>
      <g opacity=".494">
        <ellipse cx="18.419" cy="62.93" fill="rgb(229,177,63)" rx="3.837" ry="3.837"/>
      </g>
      <g opacity=".494">
        <ellipse cx="31.465" cy="62.93" fill="rgb(229,177,63)" rx="3.837" ry="3.837"/>
      </g>
      <g opacity=".494">
        <ellipse cx="42.977" cy="62.93" fill="rgb(229,177,63)" rx="3.837" ry="3.837"/>
      </g>
    </g>
    <g>
      <g opacity=".494">
        <ellipse cx="-42.209" cy="75.977" fill="rgb(229,177,63)" rx="3.837" ry="3.837"/>
      </g>
      <g opacity=".494">
        <ellipse cx="-30.698" cy="75.977" fill="rgb(229,177,63)" rx="3.837" ry="3.837"/>
      </g>
      <g opacity=".494">
        <ellipse cx="-17.651" cy="75.977" fill="rgb(229,177,63)" rx="3.837" ry="3.837"/>
      </g>
      <g opacity=".494">
        <ellipse cx="-6.14" cy="75.977" fill="rgb(229,177,63)" rx="3.837" ry="3.837"/>
      </g>
      <g opacity=".494">
        <ellipse cx="6.907" cy="75.977" fill="rgb(229,177,63)" rx="3.837" ry="3.837"/>
      </g>
      <g opacity=".494">
        <ellipse cx="18.419" cy="75.977" fill="rgb(229,177,63)" rx="3.837" ry="3.837"/>
      </g>
      <g opacity=".494">
        <ellipse cx="31.465" cy="75.977" fill="rgb(229,177,63)" rx="3.837" ry="3.837"/>
      </g>
      <g opacity=".494">
        <ellipse cx="42.977" cy="75.977" fill="rgb(229,177,63)" rx="3.837" ry="3.837"/>
      </g>
    </g>
    <g>
      <g opacity=".494">
        <ellipse cx="-42.209" cy="89.023" fill="rgb(229,177,63)" rx="3.837" ry="3.837"/>
      </g>
      <g opacity=".494">
        <ellipse cx="-30.698" cy="89.023" fill="rgb(229,177,63)" rx="3.837" ry="3.837"/>
      </g>
      <g opacity=".494">
        <ellipse cx="-17.651" cy="89.023" fill="rgb(229,177,63)" rx="3.837" ry="3.837"/>
      </g>
      <g opacity=".494">
        <ellipse cx="-6.14" cy="89.023" fill="rgb(229,177,63)" rx="3.837" ry="3.837"/>
      </g>
      <g opacity=".494">
        <ellipse cx="6.907" cy="89.023" fill="rgb(229,177,63)" rx="3.837" ry="3.837"/>
      </g>
      <g opacity=".494">
        <ellipse cx="18.419" cy="89.023" fill="rgb(229,177,63)" rx="3.837" ry="3.837"/>
      </g>
      <g opacity=".494">
        <ellipse cx="31.465" cy="89.023" fill="rgb(229,177,63)" rx="3.837" ry="3.837"/>
      </g>
      <g opacity=".494">
        <ellipse cx="42.977" cy="89.023" fill="rgb(229,177,63)" rx="3.837" ry="3.837"/>
      </g>
    </g>
    <g>
      <g opacity=".494">
        <ellipse cx="-42.209" cy="102.07" fill="rgb(229,177,63)" rx="3.837" ry="3.837"/>
      </g>
      <g opacity=".494">
        <ellipse cx="-30.698" cy="102.07" fill="rgb(229,177,63)" rx="3.837" ry="3.837"/>
      </g>
      <g opacity=".494">
        <ellipse cx="-17.651" cy="102.07" fill="rgb(229,177,63)" rx="3.837" ry="3.837"/>
      </g>
      <g opacity=".494">
        <ellipse cx="-6.14" cy="102.07" fill="rgb(229,177,63)" rx="3.837" ry="3.837"/>
      </g>
      <g opacity=".494">
        <ellipse cx="6.907" cy="102.07" fill="rgb(229,177,63)" rx="3.837" ry="3.837"/>
      </g>
      <g opacity=".494">
        <ellipse cx="18.419" cy="102.07" fill="rgb(229,177,63)" rx="3.837" ry="3.837"/>
      </g>
      <g opacity=".494">
        <ellipse cx="31.465" cy="102.07" fill="rgb(229,177,63)" rx="3.837" ry="3.837"/>
      </g>
      <g opacity=".494">
        <ellipse cx="42.977" cy="102.07" fill="rgb(229,177,63)" rx="3.837" ry="3.837"/>
      </g>
    </g>
    <g>
      <g opacity=".494">
        <ellipse cx="-42.209" cy="115.116" fill="rgb(229,177,63)" rx="3.837" ry="3.837"/>
      </g>
      <g opacity=".494">
        <ellipse cx="-30.698" cy="115.116" fill="rgb(229,177,63)" rx="3.837" ry="3.837"/>
      </g>
      <g opacity=".494">
        <ellipse cx="-17.651" cy="115.116" fill="rgb(229,177,63)" rx="3.837" ry="3.837"/>
      </g>
      <g opacity=".494">
        <ellipse cx="-6.14" cy="115.116" fill="rgb(229,177,63)" rx="3.837" ry="3.837"/>
      </g>
      <g opacity=".494">
        <ellipse cx="6.907" cy="115.116" fill="rgb(229,177,63)" rx="3.837" ry="3.837"/>
      </g>
      <g opacity=".494">
        <ellipse cx="18.419" cy="115.116" fill="rgb(229,177,63)" rx="3.837" ry="3.837"/>
      </g>
      <g opacity=".494">
        <ellipse cx="31.465" cy="115.116" fill="rgb(229,177,63)" rx="3.837" ry="3.837"/>
      </g>
      <g opacity=".494">
        <ellipse cx="42.977" cy="115.116" fill="rgb(229,177,63)" rx="3.837" ry="3.837"/>
      </g>
    </g>
    <g>
      <g opacity=".494">
        <ellipse cx="-42.209" cy="128.163" fill="rgb(229,177,63)" rx="3.837" ry="3.837"/>
      </g>
      <g opacity=".494">
        <ellipse cx="-30.698" cy="128.163" fill="rgb(229,177,63)" rx="3.837" ry="3.837"/>
      </g>
      <g opacity=".494">
        <ellipse cx="-17.651" cy="128.163" fill="rgb(229,177,63)" rx="3.837" ry="3.837"/>
      </g>
      <g opacity=".494">
        <ellipse cx="-6.14" cy="128.163" fill="rgb(229,177,63)" rx="3.837" ry="3.837"/>
      </g>
      <g opacity=".494">
        <ellipse cx="6.907" cy="128.163" fill="rgb(229,177,63)" rx="3.837" ry="3.837"/>
      </g>
      <g opacity=".494">
        <ellipse cx="18.419" cy="128.163" fill="rgb(229,177,63)" rx="3.837" ry="3.837"/>
      </g>
      <g opacity=".494">
        <ellipse cx="31.465" cy="128.163" fill="rgb(229,177,63)" rx="3.837" ry="3.837"/>
      </g>
      <g opacity=".494">
        <ellipse cx="42.977" cy="128.163" fill="rgb(229,177,63)" rx="3.837" ry="3.837"/>
      </g>
    </g>
    <g>
      <g opacity=".494">
        <ellipse cx="-42.209" cy="141.209" fill="rgb(229,177,63)" rx="3.837" ry="3.837"/>
      </g>
      <g opacity=".494">
        <ellipse cx="-30.698" cy="141.209" fill="rgb(229,177,63)" rx="3.837" ry="3.837"/>
      </g>
      <g opacity=".494">
        <ellipse cx="-17.651" cy="141.209" fill="rgb(229,177,63)" rx="3.837" ry="3.837"/>
      </g>
      <g opacity=".494">
        <ellipse cx="-6.14" cy="141.209" fill="rgb(229,177,63)" rx="3.837" ry="3.837"/>
      </g>
      <g opacity=".494">
        <ellipse cx="6.907" cy="141.209" fill="rgb(229,177,63)" rx="3.837" ry="3.837"/>
      </g>
      <g opacity=".494">
        <ellipse cx="18.419" cy="141.209" fill="rgb(229,177,63)" rx="3.837" ry="3.837"/>
      </g>
      <g opacity=".494">
        <ellipse cx="31.465" cy="141.209" fill="rgb(229,177,63)" rx="3.837" ry="3.837"/>
      </g>
      <g opacity=".494">
        <ellipse cx="42.977" cy="141.209" fill="rgb(229,177,63)" rx="3.837" ry="3.837"/>
      </g>
    </g>
    <g>
      <g opacity=".494">
        <ellipse cx="56.023" cy="49.884" fill="rgb(229,177,63)" rx="3.837" ry="3.837"/>
      </g>
      <g opacity=".494">
        <ellipse cx="67.535" cy="49.884" fill="rgb(229,177,63)" rx="3.837" ry="3.837"/>
      </g>
      <g opacity=".494">
        <ellipse cx="80.581" cy="49.884" fill="rgb(229,177,63)" rx="3.837" ry="3.837"/>
      </g>
      <g opacity=".494">
        <ellipse cx="92.093" cy="49.884" fill="rgb(229,177,63)" rx="3.837" ry="3.837"/>
      </g>
      <g opacity=".494">
        <ellipse cx="105.14" cy="49.884" fill="rgb(229,177,63)" rx="3.837" ry="3.837"/>
      </g>
      <g opacity=".494">
        <ellipse cx="116.651" cy="49.884" fill="rgb(229,177,63)" rx="3.837" ry="3.837"/>
      </g>
      <g opacity=".494">
        <ellipse cx="129.698" cy="49.884" fill="rgb(229,177,63)" rx="3.837" ry="3.837"/>
      </g>
      <g opacity=".494">
        <ellipse cx="141.209" cy="49.884" fill="rgb(229,177,63)" rx="3.837" ry="3.837"/>
      </g>
    </g>
    <g>
      <g opacity=".494">
        <ellipse cx="56.023" cy="62.93" fill="rgb(229,177,63)" rx="3.837" ry="3.837"/>
      </g>
      <g opacity=".494">
        <ellipse cx="67.535" cy="62.93" fill="rgb(229,177,63)" rx="3.837" ry="3.837"/>
      </g>
      <g opacity=".494">
        <ellipse cx="80.581" cy="62.93" fill="rgb(229,177,63)" rx="3.837" ry="3.837"/>
      </g>
      <g opacity=".494">
        <ellipse cx="92.093" cy="62.93" fill="rgb(229,177,63)" rx="3.837" ry="3.837"/>
      </g>
      <g opacity=".494">
        <ellipse cx="105.14" cy="62.93" fill="rgb(229,177,63)" rx="3.837" ry="3.837"/>
      </g>
      <g opacity=".494">
        <ellipse cx="116.651" cy="62.93" fill="rgb(229,177,63)" rx="3.837" ry="3.837"/>
      </g>
      <g opacity=".494">
        <ellipse cx="129.698" cy="62.93" fill="rgb(229,177,63)" rx="3.837" ry="3.837"/>
      </g>
      <g opacity=".494">
        <ellipse cx="141.209" cy="62.93" fill="rgb(229,177,63)" rx="3.837" ry="3.837"/>
      </g>
    </g>
    <g>
      <g opacity=".494">
        <ellipse cx="56.023" cy="75.977" fill="rgb(229,177,63)" rx="3.837" ry="3.837"/>
      </g>
      <g opacity=".494">
        <ellipse cx="67.535" cy="75.977" fill="rgb(229,177,63)" rx="3.837" ry="3.837"/>
      </g>
      <g opacity=".494">
        <ellipse cx="80.581" cy="75.977" fill="rgb(229,177,63)" rx="3.837" ry="3.837"/>
      </g>
      <g opacity=".494">
        <ellipse cx="92.093" cy="75.977" fill="rgb(229,177,63)" rx="3.837" ry="3.837"/>
      </g>
      <g opacity=".494">
        <ellipse cx="105.14" cy="75.977" fill="rgb(229,177,63)" rx="3.837" ry="3.837"/>
      </g>
      <g opacity=".494">
        <ellipse cx="116.651" cy="75.977" fill="rgb(229,177,63)" rx="3.837" ry="3.837"/>
      </g>
      <g opacity=".494">
        <ellipse cx="129.698" cy="75.977" fill="rgb(229,177,63)" rx="3.837" ry="3.837"/>
      </g>
      <g opacity=".494">
        <ellipse cx="141.209" cy="75.977" fill="rgb(229,177,63)" rx="3.837" ry="3.837"/>
      </g>
    </g>
    <g>
      <g opacity=".494">
        <ellipse cx="56.023" cy="89.023" fill="rgb(229,177,63)" rx="3.837" ry="3.837"/>
      </g>
      <g opacity=".494">
        <ellipse cx="67.535" cy="89.023" fill="rgb(229,177,63)" rx="3.837" ry="3.837"/>
      </g>
      <g opacity=".494">
        <ellipse cx="80.581" cy="89.023" fill="rgb(229,177,63)" rx="3.837" ry="3.837"/>
      </g>
      <g opacity=".494">
        <ellipse cx="92.093" cy="89.023" fill="rgb(229,177,63)" rx="3.837" ry="3.837"/>
      </g>
      <g opacity=".494">
        <ellipse cx="105.14" cy="89.023" fill="rgb(229,177,63)" rx="3.837" ry="3.837"/>
      </g>
      <g opacity=".494">
        <ellipse cx="116.651" cy="89.023" fill="rgb(229,177,63)" rx="3.837" ry="3.837"/>
      </g>
      <g opacity=".494">
        <ellipse cx="129.698" cy="89.023" fill="rgb(229,177,63)" rx="3.837" ry="3.837"/>
      </g>
      <g opacity=".494">
        <ellipse cx="141.209" cy="89.023" fill="rgb(229,177,63)" rx="3.837" ry="3.837"/>
      </g>
    </g>
    <g>
      <g opacity=".494">
        <ellipse cx="56.023" cy="102.07" fill="rgb(229,177,63)" rx="3.837" ry="3.837"/>
      </g>
      <g opacity=".494">
        <ellipse cx="67.535" cy="102.07" fill="rgb(229,177,63)" rx="3.837" ry="3.837"/>
      </g>
      <g opacity=".494">
        <ellipse cx="80.581" cy="102.07" fill="rgb(229,177,63)" rx="3.837" ry="3.837"/>
      </g>
      <g opacity=".494">
        <ellipse cx="92.093" cy="102.07" fill="rgb(229,177,63)" rx="3.837" ry="3.837"/>
      </g>
      <g opacity=".494">
        <ellipse cx="105.14" cy="102.07" fill="rgb(229,177,63)" rx="3.837" ry="3.837"/>
      </g>
      <g opacity=".494">
        <ellipse cx="116.651" cy="102.07" fill="rgb(229,177,63)" rx="3.837" ry="3.837"/>
      </g>
      <g opacity=".494">
        <ellipse cx="129.698" cy="102.07" fill="rgb(229,177,63)" rx="3.837" ry="3.837"/>
      </g>
      <g opacity=".494">
        <ellipse cx="141.209" cy="102.07" fill="rgb(229,177,63)" rx="3.837" ry="3.837"/>
      </g>
    </g>
    <g>
      <g opacity=".494">
        <ellipse cx="56.023" cy="115.116" fill="rgb(229,177,63)" rx="3.837" ry="3.837"/>
      </g>
      <g opacity=".494">
        <ellipse cx="67.535" cy="115.116" fill="rgb(229,177,63)" rx="3.837" ry="3.837"/>
      </g>
      <g opacity=".494">
        <ellipse cx="80.581" cy="115.116" fill="rgb(229,177,63)" rx="3.837" ry="3.837"/>
      </g>
      <g opacity=".494">
        <ellipse cx="92.093" cy="115.116" fill="rgb(229,177,63)" rx="3.837" ry="3.837"/>
      </g>
      <g opacity=".494">
        <ellipse cx="105.14" cy="115.116" fill="rgb(229,177,63)" rx="3.837" ry="3.837"/>
      </g>
      <g opacity=".494">
        <ellipse cx="116.651" cy="115.116" fill="rgb(229,177,63)" rx="3.837" ry="3.837"/>
      </g>
      <g opacity=".494">
        <ellipse cx="129.698" cy="115.116" fill="rgb(229,177,63)" rx="3.837" ry="3.837"/>
      </g>
      <g opacity=".494">
        <ellipse cx="141.209" cy="115.116" fill="rgb(229,177,63)" rx="3.837" ry="3.837"/>
      </g>
    </g>
    <g>
      <g opacity=".494">
        <ellipse cx="56.023" cy="128.163" fill="rgb(229,177,63)" rx="3.837" ry="3.837"/>
      </g>
      <g opacity=".494">
        <ellipse cx="67.535" cy="128.163" fill="rgb(229,177,63)" rx="3.837" ry="3.837"/>
      </g>
      <g opacity=".494">
        <ellipse cx="80.581" cy="128.163" fill="rgb(229,177,63)" rx="3.837" ry="3.837"/>
      </g>
      <g opacity=".494">
        <ellipse cx="92.093" cy="128.163" fill="rgb(229,177,63)" rx="3.837" ry="3.837"/>
      </g>
      <g opacity=".494">
        <ellipse cx="105.14" cy="128.163" fill="rgb(229,177,63)" rx="3.837" ry="3.837"/>
      </g>
      <g opacity=".494">
        <ellipse cx="116.651" cy="128.163" fill="rgb(229,177,63)" rx="3.837" ry="3.837"/>
      </g>
      <g opacity=".494">
        <ellipse cx="129.698" cy="128.163" fill="rgb(229,177,63)" rx="3.837" ry="3.837"/>
      </g>
      <g opacity=".494">
        <ellipse cx="141.209" cy="128.163" fill="rgb(229,177,63)" rx="3.837" ry="3.837"/>
      </g>
    </g>
    <g>
      <g opacity=".494">
        <ellipse cx="56.023" cy="141.209" fill="rgb(229,177,63)" rx="3.837" ry="3.837"/>
      </g>
      <g opacity=".494">
        <ellipse cx="67.535" cy="141.209" fill="rgb(229,177,63)" rx="3.837" ry="3.837"/>
      </g>
      <g opacity=".494">
        <ellipse cx="80.581" cy="141.209" fill="rgb(229,177,63)" rx="3.837" ry="3.837"/>
      </g>
      <g opacity=".494">
        <ellipse cx="92.093" cy="141.209" fill="rgb(229,177,63)" rx="3.837" ry="3.837"/>
      </g>
      <g opacity=".494">
        <ellipse cx="105.14" cy="141.209" fill="rgb(229,177,63)" rx="3.837" ry="3.837"/>
      </g>
      <g opacity=".494">
        <ellipse cx="116.651" cy="141.209" fill="rgb(229,177,63)" rx="3.837" ry="3.837"/>
      </g>
      <g opacity=".494">
        <ellipse cx="129.698" cy="141.209" fill="rgb(229,177,63)" rx="3.837" ry="3.837"/>
      </g>
      <g opacity=".494">
        <ellipse cx="141.209" cy="141.209" fill="rgb(229,177,63)" rx="3.837" ry="3.837"/>
      </g>
    </g>
  </g>
</svg>
