<svg width="80" height="80" viewBox="0 0 80 80" fill="none" xmlns="http://www.w3.org/2000/svg">
<rect width="80" height="80" fill="white"/>
<path d="M24.1693 58.3708C35.6525 58.3708 44.9614 49.0619 44.9614 37.5787C44.9614 26.0955 35.6525 16.7865 24.1693 16.7865C12.6861 16.7865 3.37715 26.0955 3.37715 37.5787C3.37715 49.0619 12.6861 58.3708 24.1693 58.3708Z" fill="#D5EAD9"/>
<path d="M40.643 29.1153C47.7554 29.1153 53.5212 23.3495 53.5212 16.2371C53.5212 9.12466 47.7554 3.35889 40.643 3.35889C33.5306 3.35889 27.7648 9.12466 27.7648 16.2371C27.7648 23.3495 33.5306 29.1153 40.643 29.1153Z" stroke="black" stroke-width="3" stroke-miterlimit="10"/>
<path d="M56.3745 67.8367L43.6216 75.2108C41.7901 76.2712 39.5248 76.2712 37.6933 75.2108L22.5884 66.4968L17.5663 63.5954C15.3589 62.323 14.2407 59.7878 14.7034 57.2912C15.5999 52.5101 17.7784 48.1724 20.9015 44.6733C25.7309 39.227 32.7773 35.7954 40.6623 35.7954C43.5927 35.7954 46.417 36.2774 49.0485 37.1546" stroke="black" stroke-width="3" stroke-miterlimit="10" stroke-linecap="round" stroke-linejoin="round"/>
<path d="M76.9835 43.1117C76.0581 52.6739 71.5372 61.0024 64.9824 66.304C63.6618 67.374 61.7918 67.374 60.4616 66.304C53.9068 61.012 49.3859 52.6739 48.4605 43.102C48.287 41.2031 49.6462 39.5065 51.5355 39.2656C54.8996 38.8414 58.0903 37.7522 61.0014 36.1231C62.081 35.5255 63.3823 35.5255 64.4619 36.1231C67.373 37.7522 70.554 38.8318 73.9181 39.2656C75.8075 39.5065 77.1666 41.2031 76.9835 43.1117Z" fill="#2BAF4A"/>
<path d="M56.9336 49.6665L61.4448 54.1874L70.5251 45.1071" stroke="white" stroke-width="5" stroke-miterlimit="10" stroke-linecap="round" stroke-linejoin="round"/>
<path d="M27.6009 49.6472C27.6009 49.6472 23.8994 53.1656 22.9451 57.0984L33.211 63.3062" stroke="black" stroke-width="3" stroke-miterlimit="10" stroke-linecap="round" stroke-linejoin="round"/>
<path d="M31.2157 48.1724C32.0621 48.1724 32.7483 47.4862 32.7483 46.6397C32.7483 45.7933 32.0621 45.1071 31.2157 45.1071C30.3692 45.1071 29.683 45.7933 29.683 46.6397C29.683 47.4862 30.3692 48.1724 31.2157 48.1724Z" fill="black"/>
</svg>
