<svg width="90" height="90" viewBox="0 0 90 90" fill="none" xmlns="http://www.w3.org/2000/svg">
<rect width="90" height="90" fill="white"/>
<path d="M27.08 68.07C40.9313 68.07 52.16 56.8413 52.16 42.99C52.16 29.1387 40.9313 17.91 27.08 17.91C13.2287 17.91 2 29.1387 2 42.99C2 56.8413 13.2287 68.07 27.08 68.07Z" fill="#D5EAD9"/>
<path d="M63.65 35.11L79.63 38.49L48.71 45.99L17.8 38.49L32.28 35.33" stroke="black" stroke-width="3" stroke-miterlimit="10" stroke-linecap="round" stroke-linejoin="round"/>
<path d="M79.63 54.51V77.98C79.63 79.55 78.6 80.88 77.24 81.08L48.72 88.23V45.99L55.09 61.08L79.63 54.51Z" stroke="black" stroke-width="3" stroke-miterlimit="10" stroke-linecap="round" stroke-linejoin="round"/>
<path d="M48.71 45.99V88.23L19.53 80.99C18.54 80.84 17.8 79.88 17.8 78.75V54.42L42.93 61.07L48.71 45.99Z" stroke="black" stroke-width="3" stroke-miterlimit="10" stroke-linecap="round" stroke-linejoin="round"/>
<path d="M86 53.58L79.63 54.51L55.08 61.08L48.71 45.99L79.63 38.49L86 53.58Z" stroke="black" stroke-width="3" stroke-miterlimit="10" stroke-linecap="round" stroke-linejoin="round"/>
<path d="M48.71 45.99L42.93 61.08L17.8 54.42L12.02 53.58L17.8 38.49L48.71 45.99Z" stroke="black" stroke-width="3" stroke-miterlimit="10" stroke-linecap="round" stroke-linejoin="round"/>
<path d="M58.58 24.39C58.91 23.82 59.64 23.62 60.21 23.95L62.06 25.02L65.05 19.84C65.69 18.73 65.69 17.35 65.05 16.24L62.06 11.06L60.21 12.13C60.02 12.24 59.82 12.29 59.62 12.29C59.21 12.29 58.81 12.08 58.59 11.69C58.26 11.12 58.46 10.39 59.03 10.06L60.88 8.99L57.87 3.8C57.23 2.69 56.04 2 54.75 2H48.76V4.14C48.76 4.8 48.23 5.33 47.57 5.33C46.91 5.33 46.38 4.8 46.38 4.14V2H40.4C39.11 2 37.92 2.69 37.28 3.8L34.29 8.98L36.14 10.05C36.71 10.38 36.91 11.11 36.58 11.68C36.36 12.06 35.96 12.28 35.55 12.28C35.35 12.28 35.14 12.23 34.96 12.12L33.11 11.05L30.12 16.23C29.48 17.34 29.48 18.72 30.12 19.83L33.11 25.01L34.96 23.94C35.53 23.61 36.26 23.81 36.59 24.38C36.92 24.95 36.72 25.68 36.15 26.01L34.3 27.08L37.29 32.26C37.93 33.37 39.12 34.06 40.41 34.06H46.4V31.92C46.4 31.26 46.93 30.73 47.59 30.73C48.25 30.73 48.78 31.26 48.78 31.92V34.06H54.77C56.06 34.06 57.25 33.37 57.89 32.26L60.88 27.08L59.03 26.01C58.44 25.68 58.25 24.96 58.58 24.39Z" stroke="#2BAF4A" stroke-width="3" stroke-miterlimit="10" stroke-linecap="round" stroke-linejoin="round"/>
<path d="M47.58 22.61C50.1095 22.61 52.16 20.5595 52.16 18.03C52.16 15.5005 50.1095 13.45 47.58 13.45C45.0505 13.45 43 15.5005 43 18.03C43 20.5595 45.0505 22.61 47.58 22.61Z" stroke="#2BAF4A" stroke-width="3" stroke-miterlimit="10" stroke-linecap="round" stroke-linejoin="round"/>
</svg>
