<svg width="80" height="80" viewBox="0 0 80 80" fill="none" xmlns="http://www.w3.org/2000/svg">
<rect width="80" height="80" fill="white"/>
<path d="M39.81 42.1233C51.1659 42.1233 60.3717 32.9175 60.3717 21.5616C60.3717 10.2058 51.1659 1 39.81 1C28.4542 1 19.2484 10.2058 19.2484 21.5616C19.2484 32.9175 28.4542 42.1233 39.81 42.1233Z" fill="#D5EAD9"/>
<path d="M39.81 24.2164V30.3809" stroke="black" stroke-width="4" stroke-miterlimit="10" stroke-linecap="round" stroke-linejoin="round"/>
<path d="M26.8049 30.0527L31.1698 34.4077" stroke="black" stroke-width="4" stroke-miterlimit="10" stroke-linecap="round" stroke-linejoin="round"/>
<path d="M52.8152 30.0527L48.4602 34.4077" stroke="black" stroke-width="4" stroke-miterlimit="10" stroke-linecap="round" stroke-linejoin="round"/>
<path d="M69.4594 55.8145V32.7174C69.4594 29.2772 67.6199 26.0856 64.6371 24.3655L44.6323 12.8219C41.6494 11.1019 37.9706 11.1019 34.9878 12.8219L14.9929 24.3655C12.0101 26.0856 10.1707 29.2673 10.1707 32.7174V55.8145C10.1707 59.2547 12.0101 62.4463 14.9929 64.1664L34.9977 75.7099C37.9806 77.43 41.6594 77.43 44.6422 75.7099L64.6471 64.1664C67.6199 62.4363 69.4594 59.2547 69.4594 55.8145Z" stroke="black" stroke-width="3" stroke-miterlimit="10" stroke-linecap="round" stroke-linejoin="round"/>
<path d="M39.81 54.3827C43.1762 54.3827 45.9049 51.6539 45.9049 48.2878C45.9049 44.9217 43.1762 42.1929 39.81 42.1929C36.4439 42.1929 33.7151 44.9217 33.7151 48.2878C33.7151 51.6539 36.4439 54.3827 39.81 54.3827Z" fill="#2BAF4A"/>
<path d="M58.403 51.9865C61.2694 51.9865 63.5931 49.6628 63.5931 46.7964C63.5931 43.9299 61.2694 41.6062 58.403 41.6062C55.5366 41.6062 53.2129 43.9299 53.2129 46.7964C53.2129 49.6628 55.5366 51.9865 58.403 51.9865Z" fill="black"/>
<path d="M21.227 51.9865C24.0934 51.9865 26.4171 49.6628 26.4171 46.7964C26.4171 43.9299 24.0934 41.6062 21.227 41.6062C18.3606 41.6062 16.0369 43.9299 16.0369 46.7964C16.0369 49.6628 18.3606 51.9865 21.227 51.9865Z" fill="black"/>
<path d="M64.8161 55.4963V55.5957C64.8161 57.5048 63.782 59.2845 62.1315 60.239L56.4542 63.5102C55.2909 64.1863 53.8393 63.5897 53.4018 62.317C52.9245 60.935 52.2385 59.6524 51.3834 58.499C50.7073 57.5843 50.8962 56.252 51.8308 55.5957C53.6901 54.2932 55.9571 53.5276 58.403 53.5276C60.7793 53.5376 62.9866 54.2535 64.8161 55.4963Z" fill="black"/>
<path d="M28.2466 58.5189C27.3915 59.6723 26.7154 60.9549 26.2382 62.327C25.8007 63.5997 24.349 64.1863 23.1857 63.5201L17.5183 60.2489C15.8579 59.2845 14.8338 57.5147 14.8338 55.6057V55.5062C16.6633 54.2634 18.8706 53.5475 21.2469 53.5475C23.663 53.5475 25.91 54.3032 27.7594 55.5758C28.704 56.2321 28.9426 57.5743 28.2466 58.5189Z" fill="black"/>
<path d="M51.0652 64.932C51.2641 66.0157 50.7769 67.1194 49.8224 67.6662L47.6449 68.919L41.1026 72.6973C40.3072 73.1546 39.3228 73.1546 38.5274 72.6973L31.9751 68.919L29.7977 67.6563C28.8432 67.1094 28.356 66.0058 28.5548 64.922C28.9426 62.844 29.8871 60.9648 31.2394 59.4436C33.3373 57.0772 36.3897 55.5957 39.81 55.5957C43.2204 55.5957 46.2728 57.0871 48.3707 59.4336C49.7329 60.9648 50.6775 62.8539 51.0652 64.932Z" fill="#2BAF4A"/>
</svg>
