<svg width="90" height="90" viewBox="0 0 90 90" fill="none" xmlns="http://www.w3.org/2000/svg">
<rect width="90" height="90" fill="white"/>
<path d="M31.75 65.6678C45.419 65.6678 56.5 54.5868 56.5 40.9178C56.5 27.2487 45.419 16.1678 31.75 16.1678C18.081 16.1678 7 27.2487 7 40.9178C7 54.5868 18.081 65.6678 31.75 65.6678Z" fill="#D5EAD9"/>
<path d="M67.773 14.6088V18.3094H23.4539V14.6088C23.4539 9.24036 27.8059 4.89825 33.1743 4.89825H58.0526C63.421 4.89825 67.773 9.24036 67.773 14.6088Z" stroke="black" stroke-width="3" stroke-miterlimit="10" stroke-linecap="round" stroke-linejoin="round"/>
<path d="M67.773 71.5888V75.2796C67.773 80.648 63.421 85 58.0526 85H33.1743C27.8059 85 23.4539 80.648 23.4539 75.2796V71.5888H67.773Z" stroke="black" stroke-width="3" stroke-miterlimit="10" stroke-linecap="round" stroke-linejoin="round"/>
<path d="M67.773 18.3092H23.4539V71.5888H67.773V18.3092Z" stroke="black" stroke-width="3" stroke-miterlimit="10" stroke-linecap="round" stroke-linejoin="round"/>
<path d="M38.75 11.5987H50.3355" stroke="#2BAF4A" stroke-width="3" stroke-miterlimit="10" stroke-linecap="round" stroke-linejoin="round"/>
<path d="M45.6085 81.023C47.091 81.023 48.2927 79.8213 48.2927 78.3388C48.2927 76.8564 47.091 75.6546 45.6085 75.6546C44.1261 75.6546 42.9243 76.8564 42.9243 78.3388C42.9243 79.8213 44.1261 81.023 45.6085 81.023Z" fill="#2BAF4A"/>
<path d="M34.5953 42.4474C36.0778 42.4474 37.2795 41.2456 37.2795 39.7632C37.2795 38.2807 36.0778 37.0789 34.5953 37.0789C33.1129 37.0789 31.9111 38.2807 31.9111 39.7632C31.9111 41.2456 33.1129 42.4474 34.5953 42.4474Z" fill="#2BAF4A"/>
<path d="M45.6085 42.4474C47.091 42.4474 48.2927 41.2456 48.2927 39.7632C48.2927 38.2807 47.091 37.0789 45.6085 37.0789C44.1261 37.0789 42.9243 38.2807 42.9243 39.7632C42.9243 41.2456 44.1261 42.4474 45.6085 42.4474Z" fill="#2BAF4A"/>
<path d="M56.6316 42.4474C58.114 42.4474 59.3158 41.2456 59.3158 39.7632C59.3158 38.2807 58.114 37.0789 56.6316 37.0789C55.1491 37.0789 53.9474 38.2807 53.9474 39.7632C53.9474 41.2456 55.1491 42.4474 56.6316 42.4474Z" fill="#2BAF4A"/>
<path d="M34.5953 52C36.0778 52 37.2795 50.7982 37.2795 49.3158C37.2795 47.8334 36.0778 46.6316 34.5953 46.6316C33.1129 46.6316 31.9111 47.8334 31.9111 49.3158C31.9111 50.7982 33.1129 52 34.5953 52Z" fill="#2BAF4A"/>
<path d="M45.6085 52C47.091 52 48.2927 50.7982 48.2927 49.3158C48.2927 47.8334 47.091 46.6316 45.6085 46.6316C44.1261 46.6316 42.9243 47.8334 42.9243 49.3158C42.9243 50.7982 44.1261 52 45.6085 52Z" fill="#2BAF4A"/>
<path d="M56.6316 52C58.114 52 59.3158 50.7982 59.3158 49.3158C59.3158 47.8334 58.114 46.6316 56.6316 46.6316C55.1491 46.6316 53.9474 47.8334 53.9474 49.3158C53.9474 50.7982 55.1491 52 56.6316 52Z" fill="#2BAF4A"/>
<path d="M34.5953 61.5625C36.0778 61.5625 37.2795 60.3608 37.2795 58.8783C37.2795 57.3959 36.0778 56.1941 34.5953 56.1941C33.1129 56.1941 31.9111 57.3959 31.9111 58.8783C31.9111 60.3608 33.1129 61.5625 34.5953 61.5625Z" fill="#2BAF4A"/>
<path d="M45.6085 61.5625C47.091 61.5625 48.2927 60.3608 48.2927 58.8783C48.2927 57.3959 47.091 56.1941 45.6085 56.1941C44.1261 56.1941 42.9243 57.3959 42.9243 58.8783C42.9243 60.3608 44.1261 61.5625 45.6085 61.5625Z" fill="#2BAF4A"/>
<path d="M56.6316 61.5625C58.114 61.5625 59.3158 60.3608 59.3158 58.8783C59.3158 57.3959 58.114 56.1941 56.6316 56.1941C55.1491 56.1941 53.9474 57.3959 53.9474 58.8783C53.9474 60.3608 55.1491 61.5625 56.6316 61.5625Z" fill="#2BAF4A"/>
<path d="M73.9309 7.375C76.2204 9.42763 76.4178 12.9605 74.3651 15.25L74 15.6546" stroke="#2BAF4A" stroke-width="3" stroke-miterlimit="10" stroke-linecap="round" stroke-linejoin="round"/>
<path d="M79.2894 4C83.8486 8.08553 84.2335 15.0921 80.1479 19.6513L79.4276 20.4605" stroke="#2BAF4A" stroke-width="3" stroke-miterlimit="10" stroke-linecap="round" stroke-linejoin="round"/>
</svg>
