<svg width="80" height="80" viewBox="0 0 80 80" fill="none" xmlns="http://www.w3.org/2000/svg">
<rect width="80" height="80" fill="white"/>
<path d="M26.0991 47.9917C36.2379 47.9917 44.457 39.7726 44.457 29.6339C44.457 19.4951 36.2379 11.276 26.0991 11.276C15.9603 11.276 7.74123 19.4951 7.74123 29.6339C7.74123 39.7726 15.9603 47.9917 26.0991 47.9917Z" fill="#D5EAD9"/>
<path d="M31.4351 32.8962L37.1673 38.6285L48.6963 27.0995" stroke="#2BAF4A" stroke-width="5" stroke-miterlimit="10" stroke-linecap="round" stroke-linejoin="round"/>
<path d="M40.0611 52.0651C50.6681 52.0651 59.2668 43.4664 59.2668 32.8594C59.2668 22.2523 50.6681 13.6536 40.0611 13.6536C29.454 13.6536 20.8553 22.2523 20.8553 32.8594C20.8553 43.4664 29.454 52.0651 40.0611 52.0651Z" stroke="black" stroke-width="3" stroke-miterlimit="10"/>
<path d="M70.2152 62.4698L58.7876 61.9537C57.9582 61.9076 57.2117 62.4421 56.9813 63.2439L53.7465 74.2199C53.3226 75.6576 51.4241 75.9802 50.5486 74.7545L40.5311 60.7096C50.1524 60.5529 58.5848 55.5211 63.46 47.9825L71.7634 59.6221C72.6389 60.8478 71.7173 62.5343 70.2152 62.4698Z" stroke="#2BAF4A" stroke-width="3" stroke-miterlimit="10" stroke-linecap="round" stroke-linejoin="round"/>
<path d="M39.3146 60.7003L29.2878 74.7544C28.4215 75.9801 26.523 75.6576 26.0991 74.2199L22.8644 63.2439C22.634 62.4421 21.8875 61.9076 21.0581 61.9537L9.63047 62.4697C8.1283 62.5343 7.20672 60.8478 8.073 59.6221L16.5239 47.7705C21.3345 55.3551 29.7209 60.4607 39.3146 60.7003Z" stroke="#2BAF4A" stroke-width="3" stroke-miterlimit="10" stroke-linecap="round" stroke-linejoin="round"/>
<path d="M67.9204 32.8594C67.9204 38.4349 66.2892 43.6327 63.46 47.9825C58.5848 55.521 50.1524 60.5529 40.5311 60.7095C40.3744 60.7188 40.2177 60.7188 40.0611 60.7188C39.8122 60.7188 39.5634 60.7188 39.3146 60.7003C29.7209 60.4607 21.3345 55.3552 16.5239 47.7705C13.7868 43.4576 12.2017 38.3428 12.2017 32.8594C12.2017 17.469 24.6707 5 40.0611 5C55.4515 5 67.9204 17.469 67.9204 32.8594Z" stroke="black" stroke-width="3" stroke-miterlimit="10"/>
</svg>
