<svg xmlns="http://www.w3.org/2000/svg" width="32" height="26" viewBox="0 0 32 26">
  <g>
    <path fill="rgb(255,255,255)" fill-rule="evenodd" d="M31.06493506 11.41935484H.93506494C.41558442 11.41935484 0 12.15668203 0 13.078341 0 14 .41558442 14.6451613.93506494 14.6451613h30.12987012c.51948052 0 .93506494-.73732719.93506494-1.65898617 0-.921659-.41558442-1.56682028-.93506494-1.56682028z"/>
    <path fill="rgb(255,255,255)" fill-rule="evenodd" d="M31.06493506 22.77419355H.93506494C.41558442 22.77419355 0 23.51152074 0 24.43317972 0 25.35483871.41558442 26 .93506494 26h30.12987012C31.58441558 26 32 25.26267281 32 24.34101382c0-.92165898-.41558442-1.56682027-.93506494-1.56682027z"/>
    <path fill="rgb(255,255,255)" fill-rule="evenodd" d="M.93506494 3.22580645h30.12987012C31.58441558 3.22580645 32 2.48847926 32 1.56682028 32 .64516129 31.58441558 0 31.06493506 0H.93506494C.41558442 0 0 .73732719 0 1.65898618c0 .92165898.41558442 1.56682027.93506494 1.56682027z"/>
  </g>
</svg>
