<svg xmlns="http://www.w3.org/2000/svg" width="129" height="249" viewBox="0 0 129 249">
  <g transform="rotate(90.000032 64.5 124.5)">
    <g>
      <g opacity=".494">
        <ellipse cx="-55" cy="65" fill="rgb(229,177,63)" rx="5" ry="5"/>
      </g>
      <g opacity=".494">
        <ellipse cx="-40" cy="65" fill="rgb(229,177,63)" rx="5" ry="5"/>
      </g>
      <g opacity=".494">
        <ellipse cx="-23" cy="65" fill="rgb(229,177,63)" rx="5" ry="5"/>
      </g>
      <g opacity=".494">
        <ellipse cx="-8" cy="65" fill="rgb(229,177,63)" rx="5" ry="5"/>
      </g>
      <g opacity=".494">
        <ellipse cx="9" cy="65" fill="rgb(229,177,63)" rx="5" ry="5"/>
      </g>
      <g opacity=".494">
        <ellipse cx="24" cy="65" fill="rgb(229,177,63)" rx="5" ry="5"/>
      </g>
      <g opacity=".494">
        <ellipse cx="41" cy="65" fill="rgb(229,177,63)" rx="5" ry="5"/>
      </g>
      <g opacity=".494">
        <ellipse cx="56" cy="65" fill="rgb(229,177,63)" rx="5" ry="5"/>
      </g>
    </g>
    <g>
      <g opacity=".494">
        <ellipse cx="-55" cy="82" fill="rgb(229,177,63)" rx="5" ry="5"/>
      </g>
      <g opacity=".494">
        <ellipse cx="-40" cy="82" fill="rgb(229,177,63)" rx="5" ry="5"/>
      </g>
      <g opacity=".494">
        <ellipse cx="-23" cy="82" fill="rgb(229,177,63)" rx="5" ry="5"/>
      </g>
      <g opacity=".494">
        <ellipse cx="-8" cy="82" fill="rgb(229,177,63)" rx="5" ry="5"/>
      </g>
      <g opacity=".494">
        <ellipse cx="9" cy="82" fill="rgb(229,177,63)" rx="5" ry="5"/>
      </g>
      <g opacity=".494">
        <ellipse cx="24" cy="82" fill="rgb(229,177,63)" rx="5" ry="5"/>
      </g>
      <g opacity=".494">
        <ellipse cx="41" cy="82" fill="rgb(229,177,63)" rx="5" ry="5"/>
      </g>
      <g opacity=".494">
        <ellipse cx="56" cy="82" fill="rgb(229,177,63)" rx="5" ry="5"/>
      </g>
    </g>
    <g>
      <g opacity=".494">
        <ellipse cx="-55" cy="99" fill="rgb(229,177,63)" rx="5" ry="5"/>
      </g>
      <g opacity=".494">
        <ellipse cx="-40" cy="99" fill="rgb(229,177,63)" rx="5" ry="5"/>
      </g>
      <g opacity=".494">
        <ellipse cx="-23" cy="99" fill="rgb(229,177,63)" rx="5" ry="5"/>
      </g>
      <g opacity=".494">
        <ellipse cx="-8" cy="99" fill="rgb(229,177,63)" rx="5" ry="5"/>
      </g>
      <g opacity=".494">
        <ellipse cx="9" cy="99" fill="rgb(229,177,63)" rx="5" ry="5"/>
      </g>
      <g opacity=".494">
        <ellipse cx="24" cy="99" fill="rgb(229,177,63)" rx="5" ry="5"/>
      </g>
      <g opacity=".494">
        <ellipse cx="41" cy="99" fill="rgb(229,177,63)" rx="5" ry="5"/>
      </g>
      <g opacity=".494">
        <ellipse cx="56" cy="99" fill="rgb(229,177,63)" rx="5" ry="5"/>
      </g>
    </g>
    <g>
      <g opacity=".494">
        <ellipse cx="-55" cy="116" fill="rgb(229,177,63)" rx="5" ry="5"/>
      </g>
      <g opacity=".494">
        <ellipse cx="-40" cy="116" fill="rgb(229,177,63)" rx="5" ry="5"/>
      </g>
      <g opacity=".494">
        <ellipse cx="-23" cy="116" fill="rgb(229,177,63)" rx="5" ry="5"/>
      </g>
      <g opacity=".494">
        <ellipse cx="-8" cy="116" fill="rgb(229,177,63)" rx="5" ry="5"/>
      </g>
      <g opacity=".494">
        <ellipse cx="9" cy="116" fill="rgb(229,177,63)" rx="5" ry="5"/>
      </g>
      <g opacity=".494">
        <ellipse cx="24" cy="116" fill="rgb(229,177,63)" rx="5" ry="5"/>
      </g>
      <g opacity=".494">
        <ellipse cx="41" cy="116" fill="rgb(229,177,63)" rx="5" ry="5"/>
      </g>
      <g opacity=".494">
        <ellipse cx="56" cy="116" fill="rgb(229,177,63)" rx="5" ry="5"/>
      </g>
    </g>
    <g>
      <g opacity=".494">
        <ellipse cx="-55" cy="133" fill="rgb(229,177,63)" rx="5" ry="5"/>
      </g>
      <g opacity=".494">
        <ellipse cx="-40" cy="133" fill="rgb(229,177,63)" rx="5" ry="5"/>
      </g>
      <g opacity=".494">
        <ellipse cx="-23" cy="133" fill="rgb(229,177,63)" rx="5" ry="5"/>
      </g>
      <g opacity=".494">
        <ellipse cx="-8" cy="133" fill="rgb(229,177,63)" rx="5" ry="5"/>
      </g>
      <g opacity=".494">
        <ellipse cx="9" cy="133" fill="rgb(229,177,63)" rx="5" ry="5"/>
      </g>
      <g opacity=".494">
        <ellipse cx="24" cy="133" fill="rgb(229,177,63)" rx="5" ry="5"/>
      </g>
      <g opacity=".494">
        <ellipse cx="41" cy="133" fill="rgb(229,177,63)" rx="5" ry="5"/>
      </g>
      <g opacity=".494">
        <ellipse cx="56" cy="133" fill="rgb(229,177,63)" rx="5" ry="5"/>
      </g>
    </g>
    <g>
      <g opacity=".494">
        <ellipse cx="-55" cy="150" fill="rgb(229,177,63)" rx="5" ry="5"/>
      </g>
      <g opacity=".494">
        <ellipse cx="-40" cy="150" fill="rgb(229,177,63)" rx="5" ry="5"/>
      </g>
      <g opacity=".494">
        <ellipse cx="-23" cy="150" fill="rgb(229,177,63)" rx="5" ry="5"/>
      </g>
      <g opacity=".494">
        <ellipse cx="-8" cy="150" fill="rgb(229,177,63)" rx="5" ry="5"/>
      </g>
      <g opacity=".494">
        <ellipse cx="9" cy="150" fill="rgb(229,177,63)" rx="5" ry="5"/>
      </g>
      <g opacity=".494">
        <ellipse cx="24" cy="150" fill="rgb(229,177,63)" rx="5" ry="5"/>
      </g>
      <g opacity=".494">
        <ellipse cx="41" cy="150" fill="rgb(229,177,63)" rx="5" ry="5"/>
      </g>
      <g opacity=".494">
        <ellipse cx="56" cy="150" fill="rgb(229,177,63)" rx="5" ry="5"/>
      </g>
    </g>
    <g>
      <g opacity=".494">
        <ellipse cx="-55" cy="167" fill="rgb(229,177,63)" rx="5" ry="5"/>
      </g>
      <g opacity=".494">
        <ellipse cx="-40" cy="167" fill="rgb(229,177,63)" rx="5" ry="5"/>
      </g>
      <g opacity=".494">
        <ellipse cx="-23" cy="167" fill="rgb(229,177,63)" rx="5" ry="5"/>
      </g>
      <g opacity=".494">
        <ellipse cx="-8" cy="167" fill="rgb(229,177,63)" rx="5" ry="5"/>
      </g>
      <g opacity=".494">
        <ellipse cx="9" cy="167" fill="rgb(229,177,63)" rx="5" ry="5"/>
      </g>
      <g opacity=".494">
        <ellipse cx="24" cy="167" fill="rgb(229,177,63)" rx="5" ry="5"/>
      </g>
      <g opacity=".494">
        <ellipse cx="41" cy="167" fill="rgb(229,177,63)" rx="5" ry="5"/>
      </g>
      <g opacity=".494">
        <ellipse cx="56" cy="167" fill="rgb(229,177,63)" rx="5" ry="5"/>
      </g>
    </g>
    <g>
      <g opacity=".494">
        <ellipse cx="-55" cy="184" fill="rgb(229,177,63)" rx="5" ry="5"/>
      </g>
      <g opacity=".494">
        <ellipse cx="-40" cy="184" fill="rgb(229,177,63)" rx="5" ry="5"/>
      </g>
      <g opacity=".494">
        <ellipse cx="-23" cy="184" fill="rgb(229,177,63)" rx="5" ry="5"/>
      </g>
      <g opacity=".494">
        <ellipse cx="-8" cy="184" fill="rgb(229,177,63)" rx="5" ry="5"/>
      </g>
      <g opacity=".494">
        <ellipse cx="9" cy="184" fill="rgb(229,177,63)" rx="5" ry="5"/>
      </g>
      <g opacity=".494">
        <ellipse cx="24" cy="184" fill="rgb(229,177,63)" rx="5" ry="5"/>
      </g>
      <g opacity=".494">
        <ellipse cx="41" cy="184" fill="rgb(229,177,63)" rx="5" ry="5"/>
      </g>
      <g opacity=".494">
        <ellipse cx="56" cy="184" fill="rgb(229,177,63)" rx="5" ry="5"/>
      </g>
    </g>
    <g>
      <g opacity=".494">
        <ellipse cx="73" cy="65" fill="rgb(229,177,63)" rx="5" ry="5"/>
      </g>
      <g opacity=".494">
        <ellipse cx="88" cy="65" fill="rgb(229,177,63)" rx="5" ry="5"/>
      </g>
      <g opacity=".494">
        <ellipse cx="105" cy="65" fill="rgb(229,177,63)" rx="5" ry="5"/>
      </g>
      <g opacity=".494">
        <ellipse cx="120" cy="65" fill="rgb(229,177,63)" rx="5" ry="5"/>
      </g>
      <g opacity=".494">
        <ellipse cx="137" cy="65" fill="rgb(229,177,63)" rx="5" ry="5"/>
      </g>
      <g opacity=".494">
        <ellipse cx="152" cy="65" fill="rgb(229,177,63)" rx="5" ry="5"/>
      </g>
      <g opacity=".494">
        <ellipse cx="169" cy="65" fill="rgb(229,177,63)" rx="5" ry="5"/>
      </g>
      <g opacity=".494">
        <ellipse cx="184" cy="65" fill="rgb(229,177,63)" rx="5" ry="5"/>
      </g>
    </g>
    <g>
      <g opacity=".494">
        <ellipse cx="73" cy="82" fill="rgb(229,177,63)" rx="5" ry="5"/>
      </g>
      <g opacity=".494">
        <ellipse cx="88" cy="82" fill="rgb(229,177,63)" rx="5" ry="5"/>
      </g>
      <g opacity=".494">
        <ellipse cx="105" cy="82" fill="rgb(229,177,63)" rx="5" ry="5"/>
      </g>
      <g opacity=".494">
        <ellipse cx="120" cy="82" fill="rgb(229,177,63)" rx="5" ry="5"/>
      </g>
      <g opacity=".494">
        <ellipse cx="137" cy="82" fill="rgb(229,177,63)" rx="5" ry="5"/>
      </g>
      <g opacity=".494">
        <ellipse cx="152" cy="82" fill="rgb(229,177,63)" rx="5" ry="5"/>
      </g>
      <g opacity=".494">
        <ellipse cx="169" cy="82" fill="rgb(229,177,63)" rx="5" ry="5"/>
      </g>
      <g opacity=".494">
        <ellipse cx="184" cy="82" fill="rgb(229,177,63)" rx="5" ry="5"/>
      </g>
    </g>
    <g>
      <g opacity=".494">
        <ellipse cx="73" cy="99" fill="rgb(229,177,63)" rx="5" ry="5"/>
      </g>
      <g opacity=".494">
        <ellipse cx="88" cy="99" fill="rgb(229,177,63)" rx="5" ry="5"/>
      </g>
      <g opacity=".494">
        <ellipse cx="105" cy="99" fill="rgb(229,177,63)" rx="5" ry="5"/>
      </g>
      <g opacity=".494">
        <ellipse cx="120" cy="99" fill="rgb(229,177,63)" rx="5" ry="5"/>
      </g>
      <g opacity=".494">
        <ellipse cx="137" cy="99" fill="rgb(229,177,63)" rx="5" ry="5"/>
      </g>
      <g opacity=".494">
        <ellipse cx="152" cy="99" fill="rgb(229,177,63)" rx="5" ry="5"/>
      </g>
      <g opacity=".494">
        <ellipse cx="169" cy="99" fill="rgb(229,177,63)" rx="5" ry="5"/>
      </g>
      <g opacity=".494">
        <ellipse cx="184" cy="99" fill="rgb(229,177,63)" rx="5" ry="5"/>
      </g>
    </g>
    <g>
      <g opacity=".494">
        <ellipse cx="73" cy="116" fill="rgb(229,177,63)" rx="5" ry="5"/>
      </g>
      <g opacity=".494">
        <ellipse cx="88" cy="116" fill="rgb(229,177,63)" rx="5" ry="5"/>
      </g>
      <g opacity=".494">
        <ellipse cx="105" cy="116" fill="rgb(229,177,63)" rx="5" ry="5"/>
      </g>
      <g opacity=".494">
        <ellipse cx="120" cy="116" fill="rgb(229,177,63)" rx="5" ry="5"/>
      </g>
      <g opacity=".494">
        <ellipse cx="137" cy="116" fill="rgb(229,177,63)" rx="5" ry="5"/>
      </g>
      <g opacity=".494">
        <ellipse cx="152" cy="116" fill="rgb(229,177,63)" rx="5" ry="5"/>
      </g>
      <g opacity=".494">
        <ellipse cx="169" cy="116" fill="rgb(229,177,63)" rx="5" ry="5"/>
      </g>
      <g opacity=".494">
        <ellipse cx="184" cy="116" fill="rgb(229,177,63)" rx="5" ry="5"/>
      </g>
    </g>
    <g>
      <g opacity=".494">
        <ellipse cx="73" cy="133" fill="rgb(229,177,63)" rx="5" ry="5"/>
      </g>
      <g opacity=".494">
        <ellipse cx="88" cy="133" fill="rgb(229,177,63)" rx="5" ry="5"/>
      </g>
      <g opacity=".494">
        <ellipse cx="105" cy="133" fill="rgb(229,177,63)" rx="5" ry="5"/>
      </g>
      <g opacity=".494">
        <ellipse cx="120" cy="133" fill="rgb(229,177,63)" rx="5" ry="5"/>
      </g>
      <g opacity=".494">
        <ellipse cx="137" cy="133" fill="rgb(229,177,63)" rx="5" ry="5"/>
      </g>
      <g opacity=".494">
        <ellipse cx="152" cy="133" fill="rgb(229,177,63)" rx="5" ry="5"/>
      </g>
      <g opacity=".494">
        <ellipse cx="169" cy="133" fill="rgb(229,177,63)" rx="5" ry="5"/>
      </g>
      <g opacity=".494">
        <ellipse cx="184" cy="133" fill="rgb(229,177,63)" rx="5" ry="5"/>
      </g>
    </g>
    <g>
      <g opacity=".494">
        <ellipse cx="73" cy="150" fill="rgb(229,177,63)" rx="5" ry="5"/>
      </g>
      <g opacity=".494">
        <ellipse cx="88" cy="150" fill="rgb(229,177,63)" rx="5" ry="5"/>
      </g>
      <g opacity=".494">
        <ellipse cx="105" cy="150" fill="rgb(229,177,63)" rx="5" ry="5"/>
      </g>
      <g opacity=".494">
        <ellipse cx="120" cy="150" fill="rgb(229,177,63)" rx="5" ry="5"/>
      </g>
      <g opacity=".494">
        <ellipse cx="137" cy="150" fill="rgb(229,177,63)" rx="5" ry="5"/>
      </g>
      <g opacity=".494">
        <ellipse cx="152" cy="150" fill="rgb(229,177,63)" rx="5" ry="5"/>
      </g>
      <g opacity=".494">
        <ellipse cx="169" cy="150" fill="rgb(229,177,63)" rx="5" ry="5"/>
      </g>
      <g opacity=".494">
        <ellipse cx="184" cy="150" fill="rgb(229,177,63)" rx="5" ry="5"/>
      </g>
    </g>
    <g>
      <g opacity=".494">
        <ellipse cx="73" cy="167" fill="rgb(229,177,63)" rx="5" ry="5"/>
      </g>
      <g opacity=".494">
        <ellipse cx="88" cy="167" fill="rgb(229,177,63)" rx="5" ry="5"/>
      </g>
      <g opacity=".494">
        <ellipse cx="105" cy="167" fill="rgb(229,177,63)" rx="5" ry="5"/>
      </g>
      <g opacity=".494">
        <ellipse cx="120" cy="167" fill="rgb(229,177,63)" rx="5" ry="5"/>
      </g>
      <g opacity=".494">
        <ellipse cx="137" cy="167" fill="rgb(229,177,63)" rx="5" ry="5"/>
      </g>
      <g opacity=".494">
        <ellipse cx="152" cy="167" fill="rgb(229,177,63)" rx="5" ry="5"/>
      </g>
      <g opacity=".494">
        <ellipse cx="169" cy="167" fill="rgb(229,177,63)" rx="5" ry="5"/>
      </g>
      <g opacity=".494">
        <ellipse cx="184" cy="167" fill="rgb(229,177,63)" rx="5" ry="5"/>
      </g>
    </g>
    <g>
      <g opacity=".494">
        <ellipse cx="73" cy="184" fill="rgb(229,177,63)" rx="5" ry="5"/>
      </g>
      <g opacity=".494">
        <ellipse cx="88" cy="184" fill="rgb(229,177,63)" rx="5" ry="5"/>
      </g>
      <g opacity=".494">
        <ellipse cx="105" cy="184" fill="rgb(229,177,63)" rx="5" ry="5"/>
      </g>
      <g opacity=".494">
        <ellipse cx="120" cy="184" fill="rgb(229,177,63)" rx="5" ry="5"/>
      </g>
      <g opacity=".494">
        <ellipse cx="137" cy="184" fill="rgb(229,177,63)" rx="5" ry="5"/>
      </g>
      <g opacity=".494">
        <ellipse cx="152" cy="184" fill="rgb(229,177,63)" rx="5" ry="5"/>
      </g>
      <g opacity=".494">
        <ellipse cx="169" cy="184" fill="rgb(229,177,63)" rx="5" ry="5"/>
      </g>
      <g opacity=".494">
        <ellipse cx="184" cy="184" fill="rgb(229,177,63)" rx="5" ry="5"/>
      </g>
    </g>
  </g>
</svg>
