<svg width="80" height="80" viewBox="0 0 80 80" fill="none" xmlns="http://www.w3.org/2000/svg">
<rect width="80" height="80" fill="white"/>
<path d="M28.4003 54.1359C37.7617 54.1359 45.3507 46.547 45.3507 37.1856C45.3507 27.8242 37.7617 20.2352 28.4003 20.2352C19.0389 20.2352 11.45 27.8242 11.45 37.1856C11.45 46.547 19.0389 54.1359 28.4003 54.1359Z" fill="#D5EAD9"/>
<path d="M58.7016 36.207C59.2037 42.5889 56.5318 48.3667 52.09 52.1278C50.4902 53.4807 49.5202 55.4378 49.5202 57.5396V57.6077C49.5202 62.024 45.9463 65.5978 41.53 65.5978H38.271C33.8547 65.5978 30.2809 62.024 30.2809 57.6077V57.5481C30.2809 55.4293 29.2853 53.4807 27.677 52.1022C23.6182 48.639 21.0484 43.4909 21.0484 37.7302C21.0484 26.5831 30.7233 17.6995 42.1257 19.0014C50.9753 20.0055 58.0124 27.3234 58.7016 36.207Z" stroke="black" stroke-width="3" stroke-miterlimit="10"/>
<path d="M34.3738 71.5883H45.4443C46.6185 71.5883 47.3503 72.8562 46.7632 73.8773L46.6185 74.1326C43.6318 79.2892 36.1863 79.2892 33.208 74.1326L33.0634 73.8773C32.4677 72.8647 33.1995 71.5883 34.3738 71.5883Z" stroke="black" stroke-width="3" stroke-miterlimit="10" stroke-linecap="round" stroke-linejoin="round"/>
<path d="M31.353 38.2067L36.6457 43.4994L47.2908 32.8544" stroke="#2BAF4A" stroke-width="5" stroke-miterlimit="10" stroke-linecap="round" stroke-linejoin="round"/>
<path d="M39.3261 11.6409V2" stroke="#2BAF4A" stroke-width="4" stroke-miterlimit="10" stroke-linecap="round" stroke-linejoin="round"/>
<path d="M22.9459 18.0314L16.7427 10.6454" stroke="#2BAF4A" stroke-width="4" stroke-miterlimit="10" stroke-linecap="round" stroke-linejoin="round"/>
<path d="M14.4963 33.45L4.99999 31.7737" stroke="#2BAF4A" stroke-width="4" stroke-miterlimit="10" stroke-linecap="round" stroke-linejoin="round"/>
<path d="M17.9425 50.6897L9.58645 55.5144" stroke="#2BAF4A" stroke-width="4" stroke-miterlimit="10" stroke-linecap="round" stroke-linejoin="round"/>
<path d="M62.4457 49.6856L70.8017 54.5103" stroke="#2BAF4A" stroke-width="4" stroke-miterlimit="10" stroke-linecap="round" stroke-linejoin="round"/>
<path d="M65.109 32.3098L74.6053 30.6335" stroke="#2BAF4A" stroke-width="4" stroke-miterlimit="10" stroke-linecap="round" stroke-linejoin="round"/>
<path d="M55.9787 17.2825L62.1819 9.89655" stroke="#2BAF4A" stroke-width="4" stroke-miterlimit="10" stroke-linecap="round" stroke-linejoin="round"/>
</svg>
