<svg width="90" height="90" viewBox="0 0 90 90" fill="none" xmlns="http://www.w3.org/2000/svg">
<rect width="90" height="90" fill="white"/>
<path d="M27.08 54.16C40.9313 54.16 52.16 42.9313 52.16 29.08C52.16 15.2287 40.9313 4 27.08 4C13.2287 4 2 15.2287 2 29.08C2 42.9313 13.2287 54.16 27.08 54.16Z" fill="#D5EAD9"/>
<path d="M67.87 54.96V80.5C67.87 84.28 64.81 87.34 61.03 87.34H20.14C16.36 87.34 13.3 84.28 13.3 80.5V24.8C13.3 21.02 16.36 17.96 20.14 17.96H47.47" stroke="black" stroke-width="3" stroke-miterlimit="10" stroke-linecap="round" stroke-linejoin="round"/>
<path d="M32.79 37.87H22.4" stroke="#2BAF4A" stroke-width="5" stroke-miterlimit="10" stroke-linecap="round" stroke-linejoin="round"/>
<path d="M58.77 54.96H22.4" stroke="#2BAF4A" stroke-width="5" stroke-miterlimit="10" stroke-linecap="round" stroke-linejoin="round"/>
<path d="M58.77 72.17H22.4" stroke="#2BAF4A" stroke-width="5" stroke-miterlimit="10" stroke-linecap="round" stroke-linejoin="round"/>
<path d="M84.39 4.84003L81.82 7.64003" stroke="#2BAF4A" stroke-width="3" stroke-miterlimit="10" stroke-linecap="round" stroke-linejoin="round"/>
<path d="M76.07 2L76.23 5.8" stroke="#2BAF4A" stroke-width="3" stroke-miterlimit="10" stroke-linecap="round" stroke-linejoin="round"/>
<path d="M87.92 12.89L84.12 13.05" stroke="#2BAF4A" stroke-width="3" stroke-miterlimit="10" stroke-linecap="round" stroke-linejoin="round"/>
<path d="M75.8 29.95C70.59 33.75 65.58 37.84 60.81 42.19C59.88 43.03 58.47 43.04 57.55 42.19L49.45 34.74C48.53 33.89 48.42 32.48 49.18 31.49C53.11 26.37 56.76 21.03 60.11 15.51C60.91 14.2 62.69 13.93 63.82 14.97L76.05 26.21C77.16 27.25 77.04 29.05 75.8 29.95Z" fill="#2BAF4A"/>
<path d="M71.66 39.76L74.84 42.68C76.29 44.01 76.38 46.27 75.05 47.72C73.72 49.17 71.46 49.26 70.01 47.93L65.81 44.07" stroke="#2BAF4A" stroke-width="3" stroke-miterlimit="10" stroke-linecap="round" stroke-linejoin="round"/>
<path d="M80.33 27.39L62.26 10.79C60.95 9.57998 60.86 7.53998 62.07 6.21998C63.28 4.90998 65.32 4.81998 66.64 6.02998L84.71 22.63C86.02 23.84 86.11 25.88 84.9 27.2C83.69 28.51 81.65 28.6 80.33 27.39Z" fill="#2BAF4A"/>
</svg>
