<svg width="80" height="80" viewBox="0 0 80 80" fill="none" xmlns="http://www.w3.org/2000/svg">
<rect width="80" height="80" fill="white"/>
<path d="M24.9758 68.4441C34.1243 68.4441 41.5406 61.0278 41.5406 51.8794C41.5406 42.7309 34.1243 35.3146 24.9758 35.3146C15.8273 35.3146 8.41104 42.7309 8.41104 51.8794C8.41104 61.0278 15.8273 68.4441 24.9758 68.4441Z" fill="#D5EAD9"/>
<path d="M36.5845 65.4838H35.0627C30.9464 65.4838 27.6119 62.1492 27.6119 58.0329V57.9747C27.6119 56.0039 26.6805 54.1745 25.1837 52.9022C21.4001 49.6757 18.9969 44.8776 18.9969 39.5057C18.9969 29.793 26.8718 21.9181 36.5845 21.9181" stroke="black" stroke-width="3" stroke-miterlimit="10" stroke-linecap="round" stroke-linejoin="round"/>
<path d="M31.4204 71.0802H41.7402C42.8378 71.0802 43.5197 72.261 42.9709 73.209L42.8295 73.4502C40.0438 78.2566 33.1002 78.2566 30.3228 73.4502L30.1814 73.209C29.6492 72.2693 30.3311 71.0802 31.4204 71.0802Z" stroke="black" stroke-width="3" stroke-miterlimit="10" stroke-linecap="round" stroke-linejoin="round"/>
<path d="M37.7902 12.9705V3" stroke="#2BAF4A" stroke-width="4" stroke-miterlimit="10" stroke-linecap="round" stroke-linejoin="round"/>
<path d="M20.8429 19.5731L14.4399 11.9393" stroke="#2BAF4A" stroke-width="4" stroke-miterlimit="10" stroke-linecap="round" stroke-linejoin="round"/>
<path d="M12.1115 35.5225L2.29073 33.7929" stroke="#2BAF4A" stroke-width="4" stroke-miterlimit="10" stroke-linecap="round" stroke-linejoin="round"/>
<path d="M64.4585 34.3417L74.2793 32.612" stroke="#2BAF4A" stroke-width="4" stroke-miterlimit="10" stroke-linecap="round" stroke-linejoin="round"/>
<path d="M55.0119 18.8081L61.4233 11.166" stroke="#2BAF4A" stroke-width="4" stroke-miterlimit="10" stroke-linecap="round" stroke-linejoin="round"/>
<path d="M49.2076 45.4514C49.4488 45.0273 49.9893 44.8859 50.4134 45.1271L51.7855 45.9171L53.9974 42.0835C54.4714 41.2603 54.4714 40.2458 53.9974 39.4225L51.7855 35.589L50.4134 36.379C50.272 36.4622 50.1223 36.4954 49.9726 36.4954C49.665 36.4954 49.3739 36.3374 49.2076 36.0547C48.9664 35.6306 49.1078 35.0901 49.5319 34.8489L50.904 34.0589L48.692 30.2254C48.218 29.4022 47.3366 28.8949 46.3803 28.8949H41.9564V30.4749C41.9564 30.9655 41.5655 31.3564 41.0749 31.3564C40.5843 31.3564 40.1934 30.9655 40.1934 30.4749V28.8949H35.7695C34.8215 28.8949 33.9401 29.4022 33.4578 30.2254L31.2458 34.0589L32.6179 34.8489C33.042 35.0901 33.1834 35.6306 32.9422 36.0547C32.7759 36.3374 32.4848 36.4954 32.1772 36.4954C32.0275 36.4954 31.8778 36.4539 31.7364 36.379L30.3643 35.589L28.1524 39.4225C27.6784 40.2458 27.6784 41.2603 28.1524 42.0835L30.3643 45.9171L31.7364 45.1271C32.1605 44.8859 32.701 45.0273 32.9422 45.4514C33.1834 45.8755 33.042 46.416 32.6179 46.6572L31.2458 47.4471L33.4578 51.2807C33.9318 52.1039 34.8132 52.6112 35.7695 52.6112H40.1934V51.0312C40.1934 50.5406 40.5843 50.1497 41.0749 50.1497C41.5655 50.1497 41.9564 50.5406 41.9564 51.0312V52.6112H46.3803C47.3283 52.6112 48.2097 52.1039 48.692 51.2807L50.904 47.4471L49.5319 46.6572C49.1161 46.4077 48.9664 45.8755 49.2076 45.4514Z" stroke="#2BAF4A" stroke-width="3" stroke-miterlimit="10" stroke-linecap="round" stroke-linejoin="round"/>
<path d="M41.0749 44.1375C42.9441 44.1375 44.4594 42.6222 44.4594 40.753C44.4594 38.8838 42.9441 37.3686 41.0749 37.3686C39.2057 37.3686 37.6904 38.8838 37.6904 40.753C37.6904 42.6222 39.2057 44.1375 41.0749 44.1375Z" stroke="#2BAF4A" stroke-width="3" stroke-miterlimit="10" stroke-linecap="round" stroke-linejoin="round"/>
<path d="M34.8215 58.64H48.4592L58.2135 53.1517" stroke="#2BAF4A" stroke-width="3" stroke-miterlimit="10" stroke-linecap="round" stroke-linejoin="round"/>
<path d="M41.0749 65.4838H50.3884" stroke="#2BAF4A" stroke-width="3" stroke-miterlimit="10" stroke-linecap="round" stroke-linejoin="round"/>
<path d="M58.2135 55.8958C59.729 55.8958 60.9576 54.6672 60.9576 53.1517C60.9576 51.6361 59.729 50.4075 58.2135 50.4075C56.6979 50.4075 55.4693 51.6361 55.4693 53.1517C55.4693 54.6672 56.6979 55.8958 58.2135 55.8958Z" fill="#2BAF4A"/>
<path d="M50.3884 68.2279C51.904 68.2279 53.1326 66.9993 53.1326 65.4838C53.1326 63.9682 51.904 62.7396 50.3884 62.7396C48.8729 62.7396 47.6443 63.9682 47.6443 65.4838C47.6443 66.9993 48.8729 68.2279 50.3884 68.2279Z" fill="#2BAF4A"/>
</svg>
