<svg width="90" height="90" viewBox="0 0 90 90" fill="none" xmlns="http://www.w3.org/2000/svg">
<rect width="90" height="90" fill="white"/>
<path d="M31.55 57.1C46.2132 57.1 58.1 45.2132 58.1 30.55C58.1 15.8868 46.2132 4 31.55 4C16.8868 4 5 15.8868 5 30.55C5 45.2132 16.8868 57.1 31.55 57.1Z" fill="#D5EAD9"/>
<path d="M26.01 66.22L41.33 75.07" stroke="black" stroke-width="3" stroke-miterlimit="10" stroke-linecap="round" stroke-linejoin="round"/>
<path d="M19.07 36.58V52.97" stroke="black" stroke-width="3" stroke-miterlimit="10" stroke-linecap="round" stroke-linejoin="round"/>
<path d="M41.58 14.8L26.28 23.63" stroke="black" stroke-width="3" stroke-miterlimit="10" stroke-linecap="round" stroke-linejoin="round"/>
<path d="M71.58 23.69L56.19 14.8" stroke="black" stroke-width="3" stroke-miterlimit="10" stroke-linecap="round" stroke-linejoin="round"/>
<path d="M78.7 52.95V36.61" stroke="black" stroke-width="3" stroke-miterlimit="10" stroke-linecap="round" stroke-linejoin="round"/>
<path d="M56.44 75.07L71.87 66.16" stroke="black" stroke-width="3" stroke-miterlimit="10" stroke-linecap="round" stroke-linejoin="round"/>
<path d="M48.89 41.4C52.64 41.4 55.68 38.36 55.68 34.61C55.68 30.86 52.64 27.82 48.89 27.82C45.14 27.82 42.1 30.86 42.1 34.61C42.1 38.36 45.14 41.4 48.89 41.4Z" fill="#2BAF4A"/>
<path d="M61.42 53.16C61.65 54.37 61.1 55.6 60.03 56.21L57.61 57.6L50.32 61.81C49.43 62.32 48.34 62.32 47.46 61.81L40.16 57.6L37.73 56.2C36.66 55.59 36.12 54.36 36.35 53.15C36.78 50.84 37.84 48.74 39.34 47.05C41.68 44.41 45.08 42.76 48.89 42.76C52.69 42.76 56.09 44.42 58.43 47.04C59.94 48.74 60.99 50.83 61.42 53.16Z" fill="#2BAF4A"/>
<path d="M77.55 36.69C81.8965 36.69 85.42 33.1665 85.42 28.82C85.42 24.4735 81.8965 20.95 77.55 20.95C73.2035 20.95 69.68 24.4735 69.68 28.82C69.68 33.1665 73.2035 36.69 77.55 36.69Z" stroke="black" stroke-width="3" stroke-miterlimit="10" stroke-linecap="round" stroke-linejoin="round"/>
<path d="M77.55 68.6C81.8965 68.6 85.42 65.0765 85.42 60.73C85.42 56.3835 81.8965 52.86 77.55 52.86C73.2035 52.86 69.68 56.3835 69.68 60.73C69.68 65.0765 73.2035 68.6 77.55 68.6Z" stroke="black" stroke-width="3" stroke-miterlimit="10" stroke-linecap="round" stroke-linejoin="round"/>
<path d="M48.89 85.14C53.2365 85.14 56.76 81.6165 56.76 77.27C56.76 72.9235 53.2365 69.4 48.89 69.4C44.5435 69.4 41.02 72.9235 41.02 77.27C41.02 81.6165 44.5435 85.14 48.89 85.14Z" stroke="black" stroke-width="3" stroke-miterlimit="10" stroke-linecap="round" stroke-linejoin="round"/>
<path d="M48.89 19.74C53.2365 19.74 56.76 16.2165 56.76 11.87C56.76 7.52352 53.2365 4 48.89 4C44.5435 4 41.02 7.52352 41.02 11.87C41.02 16.2165 44.5435 19.74 48.89 19.74Z" stroke="black" stroke-width="3" stroke-miterlimit="10" stroke-linecap="round" stroke-linejoin="round"/>
<path d="M20.37 68.6C24.7165 68.6 28.24 65.0765 28.24 60.73C28.24 56.3835 24.7165 52.86 20.37 52.86C16.0235 52.86 12.5 56.3835 12.5 60.73C12.5 65.0765 16.0235 68.6 20.37 68.6Z" stroke="black" stroke-width="3" stroke-miterlimit="10" stroke-linecap="round" stroke-linejoin="round"/>
<path d="M20.37 36.69C24.7165 36.69 28.24 33.1665 28.24 28.82C28.24 24.4735 24.7165 20.95 20.37 20.95C16.0235 20.95 12.5 24.4735 12.5 28.82C12.5 33.1665 16.0235 36.69 20.37 36.69Z" stroke="black" stroke-width="3" stroke-miterlimit="10" stroke-linecap="round" stroke-linejoin="round"/>
</svg>
