<svg width="80" height="80" viewBox="0 0 80 80" fill="none" xmlns="http://www.w3.org/2000/svg">
<rect width="80" height="80" fill="white"/>
<path d="M44.7782 70.6214C53.2246 70.6214 60.0718 63.7742 60.0718 55.3278C60.0718 46.8814 53.2246 40.0342 44.7782 40.0342C36.3318 40.0342 29.4846 46.8814 29.4846 55.3278C29.4846 63.7742 36.3318 70.6214 44.7782 70.6214Z" fill="#D5EAD9"/>
<path d="M35.7595 34.606V29.0932C35.7595 26.2394 38.0714 23.9276 40.9251 23.9276H45.9383C46.4972 23.9276 46.8952 24.495 46.6835 25.0115C46.2517 26.1039 46.1246 27.3488 46.4295 28.6359C46.9715 30.9224 48.8768 32.7176 51.1971 33.1156C54.9739 33.7592 58.2342 30.8631 58.2342 27.2217C58.2342 26.4511 58.0903 25.7144 57.8193 25.0369C57.6076 24.5034 57.9886 23.9361 58.5645 23.9361H63.5861C66.4399 23.9361 68.7518 26.2479 68.7518 29.1017V35.4275C69.6917 34.8093 70.8095 34.4536 72.012 34.4536C75.3485 34.4536 78.0583 37.1889 77.9991 40.5507C77.9398 43.8618 75.0437 46.5717 71.741 46.4277C70.6402 46.3769 69.624 46.0297 68.7518 45.4623V51.7881C68.7518 54.6334 66.4399 56.9452 63.5861 56.9452H40.9167C38.0713 56.9452 35.7595 54.6334 35.7595 51.7881V45.9789" stroke="black" stroke-width="3" stroke-miterlimit="10" stroke-linecap="round" stroke-linejoin="round"/>
<path d="M27.8587 39.3567C27.1981 42.5492 29.6116 45.3522 32.6771 45.3522C33.8626 45.3522 34.955 44.9373 35.8019 44.2344V51.9913C35.8019 54.7181 33.5916 56.9198 30.8733 56.9198H25.0557C25.9279 58.2409 26.3598 59.8837 26.1311 61.6282C25.7331 64.7191 23.1927 67.2087 20.1017 67.5559C15.9438 68.0302 12.4041 64.7868 12.4041 60.7051C12.4041 59.3079 12.8191 58.0038 13.5389 56.9198H7.72966C5.00289 56.9198 2.80115 54.7096 2.80115 51.9913V28.8561C2.80115 26.1293 5.01136 23.9276 7.72966 23.9276H30.8733C33.6001 23.9276 35.8019 26.1378 35.8019 28.8561V36.613C34.7264 35.7154 33.2444 35.292 31.6778 35.5884C29.7894 35.9525 28.2482 37.4768 27.8587 39.3567Z" fill="#D5EAD9" stroke="#2BAF4A" stroke-width="3" stroke-miterlimit="10" stroke-linecap="round" stroke-linejoin="round"/>
<path d="M35.7595 8.60857V13.6641" stroke="#2BAF4A" stroke-width="4" stroke-miterlimit="10" stroke-linecap="round" stroke-linejoin="round"/>
<path d="M25.098 13.3931L28.6716 16.9667" stroke="#2BAF4A" stroke-width="4" stroke-miterlimit="10" stroke-linecap="round" stroke-linejoin="round"/>
<path d="M46.421 13.3931L42.8474 16.9667" stroke="#2BAF4A" stroke-width="4" stroke-miterlimit="10" stroke-linecap="round" stroke-linejoin="round"/>
</svg>
