<svg width="90" height="90" viewBox="0 0 90 90" fill="none" xmlns="http://www.w3.org/2000/svg">
<rect width="90" height="90" fill="white"/>
<path d="M55.37 69.33C70.0332 69.33 81.92 57.4432 81.92 42.78C81.92 28.1168 70.0332 16.23 55.37 16.23C40.7068 16.23 28.82 28.1168 28.82 42.78C28.82 57.4432 40.7068 69.33 55.37 69.33Z" fill="#D5EAD9"/>
<path d="M45.26 84.1H12.19C9.88 84.1 8 82.22 8 79.91V41.01C8 38.7 9.88 36.82 12.19 36.82H14.37" stroke="black" stroke-width="3" stroke-miterlimit="10" stroke-linecap="round" stroke-linejoin="round"/>
<path d="M76.15 36.82H78.34C80.65 36.82 82.53 38.7 82.53 41.01V79.91C82.53 82.22 80.65 84.1 78.34 84.1H45.26" stroke="black" stroke-width="3" stroke-miterlimit="10" stroke-linecap="round" stroke-linejoin="round"/>
<path d="M45.26 36.87V83.94C40.39 79.56 31.89 75.85 21.88 74.26C20.5 74.04 19.13 73.87 17.79 73.74C15.86 73.56 14.37 71.97 14.37 70.03V26.46C16.79 26.54 19.31 26.79 21.88 27.2C31.9 28.78 40.4 32.49 45.26 36.87Z" stroke="black" stroke-width="3" stroke-miterlimit="10" stroke-linecap="round" stroke-linejoin="round"/>
<path d="M45.09 84.09C45.14 84.04 45.2 83.99 45.26 83.94V84.09H45.09Z" stroke="black" stroke-width="3" stroke-miterlimit="10" stroke-linecap="round" stroke-linejoin="round"/>
<path d="M45.43 84.09H45.27V83.94C45.33 83.99 45.38 84.04 45.43 84.09Z" stroke="black" stroke-width="3" stroke-miterlimit="10" stroke-linecap="round" stroke-linejoin="round"/>
<path d="M76.15 26.46V70.04C76.15 71.98 74.66 73.57 72.73 73.75C71.39 73.88 70.02 74.05 68.65 74.27C58.63 75.86 50.13 79.56 45.27 83.94V36.86C50.14 32.48 58.64 28.78 68.65 27.19C71.21 26.79 73.73 26.54 76.15 26.46Z" stroke="black" stroke-width="3" stroke-miterlimit="10" stroke-linecap="round" stroke-linejoin="round"/>
<path d="M45.43 84.09H45.09C45.14 84.04 45.2 83.99 45.26 83.94C45.33 83.99 45.38 84.04 45.43 84.09Z" stroke="black" stroke-width="3" stroke-miterlimit="10" stroke-linecap="round" stroke-linejoin="round"/>
<path d="M45.43 84.09H45.09C45.14 84.04 45.2 83.99 45.26 83.94C45.33 83.99 45.38 84.04 45.43 84.09Z" stroke="black" stroke-width="3" stroke-miterlimit="10" stroke-linecap="round" stroke-linejoin="round"/>
<path d="M53.27 45.34L67.87 40.05" stroke="#2BAF4A" stroke-width="3" stroke-miterlimit="10" stroke-linecap="round" stroke-linejoin="round"/>
<path d="M53.27 56.4L67.87 51.12" stroke="#2BAF4A" stroke-width="3" stroke-miterlimit="10" stroke-linecap="round" stroke-linejoin="round"/>
<path d="M53.27 67.46L67.87 62.18" stroke="#2BAF4A" stroke-width="3" stroke-miterlimit="10" stroke-linecap="round" stroke-linejoin="round"/>
<path d="M37.12 45.34L22.52 40.05" stroke="#2BAF4A" stroke-width="3" stroke-miterlimit="10" stroke-linecap="round" stroke-linejoin="round"/>
<path d="M37.12 56.4L22.52 51.12" stroke="#2BAF4A" stroke-width="3" stroke-miterlimit="10" stroke-linecap="round" stroke-linejoin="round"/>
<path d="M37.12 67.46L22.52 62.18" stroke="#2BAF4A" stroke-width="3" stroke-miterlimit="10" stroke-linecap="round" stroke-linejoin="round"/>
<path d="M45.09 27.46C51.2922 27.46 56.32 22.4322 56.32 16.23C56.32 10.0278 51.2922 5 45.09 5C38.8878 5 33.86 10.0278 33.86 16.23C33.86 22.4322 38.8878 27.46 45.09 27.46Z" fill="#2BAF4A"/>
<path d="M41.42 20.33V12.11L48.76 20.36V12.11" stroke="white" stroke-width="2" stroke-miterlimit="10" stroke-linecap="round" stroke-linejoin="round"/>
<path d="M39.57 14.61H50.61" stroke="white" stroke-miterlimit="10" stroke-linecap="round" stroke-linejoin="round"/>
<path d="M39.57 17.91H50.61" stroke="white" stroke-miterlimit="10" stroke-linecap="round" stroke-linejoin="round"/>
</svg>
