<svg width="80" height="80" viewBox="0 0 80 80" fill="none" xmlns="http://www.w3.org/2000/svg">
<rect width="80" height="80" fill="white"/>
<path d="M26.7705 50.9353C36.0436 50.9353 43.5609 43.418 43.5609 34.1449C43.5609 24.8719 36.0436 17.3546 26.7705 17.3546C17.4975 17.3546 9.98015 24.8719 9.98015 34.1449C9.98015 43.418 17.4975 50.9353 26.7705 50.9353Z" fill="#D5EAD9"/>
<path d="M39.87 11.516V3L44.3511 5.473" stroke="#2BAF4A" stroke-width="4" stroke-miterlimit="10" stroke-linecap="round" stroke-linejoin="round"/>
<path d="M21.1458 18.3307L15.6792 11.8043L20.6996 10.8188" stroke="#2BAF4A" stroke-width="4" stroke-miterlimit="10" stroke-linecap="round" stroke-linejoin="round"/>
<path d="M11.1888 35.5767L2.80287 34.0984L6.01963 30.1193" stroke="#2BAF4A" stroke-width="4" stroke-miterlimit="10" stroke-linecap="round" stroke-linejoin="round"/>
<path d="M14.6472 55.2026L7.27472 59.4514L7.17245 54.338" stroke="#2BAF4A" stroke-width="4" stroke-miterlimit="10" stroke-linecap="round" stroke-linejoin="round"/>
<path d="M29.9036 68.0046L26.9936 76L23.6281 72.151" stroke="#2BAF4A" stroke-width="4" stroke-miterlimit="10" stroke-linecap="round" stroke-linejoin="round"/>
<path d="M49.8271 68.0046L52.737 76L47.6795 75.2098" stroke="#2BAF4A" stroke-width="4" stroke-miterlimit="10" stroke-linecap="round" stroke-linejoin="round"/>
<path d="M65.0927 55.2026L72.4652 59.4514L68.0771 62.101" stroke="#2BAF4A" stroke-width="4" stroke-miterlimit="10" stroke-linecap="round" stroke-linejoin="round"/>
<path d="M68.5512 35.5767L76.9371 34.0984L75.2729 38.9422" stroke="#2BAF4A" stroke-width="4" stroke-miterlimit="10" stroke-linecap="round" stroke-linejoin="round"/>
<path d="M58.5848 18.3307L64.0608 11.8043L65.9016 16.5829" stroke="#2BAF4A" stroke-width="4" stroke-miterlimit="10" stroke-linecap="round" stroke-linejoin="round"/>
<path d="M39.87 63.0121C52.2289 63.0121 62.2479 52.9932 62.2479 40.6342C62.2479 28.2753 52.2289 18.2564 39.87 18.2564C27.511 18.2564 17.4921 28.2753 17.4921 40.6342C17.4921 52.9932 27.511 63.0121 39.87 63.0121Z" stroke="black" stroke-width="3" stroke-miterlimit="10"/>
<path d="M32.5533 50.3548V31.8207L39.9908 41.1177L47.4284 50.4147V31.8207" stroke="#2BAF4A" stroke-width="5" stroke-miterlimit="10" stroke-linecap="round" stroke-linejoin="round"/>
<path d="M51.6121 37.3989H28.8345" stroke="#2BAF4A" stroke-width="3" stroke-linecap="round" stroke-linejoin="round"/>
<path d="M51.6121 44.8365H28.8345" stroke="#2BAF4A" stroke-width="3" stroke-linecap="round" stroke-linejoin="round"/>
<path d="M55.1078 42.3263C56.0423 42.3263 56.7998 41.5687 56.7998 40.6342C56.7998 39.6997 56.0423 38.9422 55.1078 38.9422C54.1733 38.9422 53.4157 39.6997 53.4157 40.6342C53.4157 41.5687 54.1733 42.3263 55.1078 42.3263Z" fill="black"/>
<path d="M24.6229 42.3263C25.5574 42.3263 26.315 41.5687 26.315 40.6342C26.315 39.6997 25.5574 38.9422 24.6229 38.9422C23.6884 38.9422 22.9309 39.6997 22.9309 40.6342C22.9309 41.5687 23.6884 42.3263 24.6229 42.3263Z" fill="black"/>
</svg>
